<mxfile host="app.diagrams.net" modified="2021-07-01T21:24:20.443Z" agent="5.0 (Macintosh; Intel Mac OS X 10_15_6) AppleWebKit/605.1.15 (KHTML, like Gecko) Version/14.0.2 Safari/605.1.15" etag="_ddIqtlCrwQsUtTZ_Y9Q" version="14.6.10" type="github">
  <diagram name="Page-1" id="c4acf3e9-155e-7222-9cf6-157b1a14988f">
    <mxGraphModel dx="2646" dy="1745" grid="1" gridSize="10" guides="1" tooltips="1" connect="1" arrows="1" fold="1" page="1" pageScale="1" pageWidth="850" pageHeight="1100" background="#FFFFFF" math="0" shadow="0">
      <root>
        <mxCell id="0" />
        <mxCell id="1" parent="0" />
        <mxCell id="2" value="MODEL" style="shape=umlFrame;whiteSpace=wrap;html=1;width=70;height=30;fillColor=#FFFFFF;labelBackgroundColor=#FFFFFF;" parent="1" vertex="1">
          <mxGeometry x="-1350" y="-790" width="3790" height="2700" as="geometry" />
        </mxCell>
        <mxCell id="kKySkyt4rWCCK8jObTBy-1" style="edgeStyle=orthogonalEdgeStyle;rounded=0;orthogonalLoop=1;jettySize=auto;html=1;exitX=1;exitY=0.5;exitDx=0;exitDy=0;entryX=0;entryY=0.286;entryDx=0;entryDy=0;entryPerimeter=0;labelBackgroundColor=#FFFFFF;fillColor=none;" parent="1" source="17acba5748e5396b-21" target="Tt4_UZsse2JY--aP2vom-9" edge="1">
          <mxGeometry relative="1" as="geometry">
            <mxPoint x="1250" y="370" as="targetPoint" />
            <Array as="points">
              <mxPoint x="1170" y="361" />
              <mxPoint x="1170" y="370" />
            </Array>
          </mxGeometry>
        </mxCell>
        <mxCell id="17acba5748e5396b-20" value="{Abstract}&lt;br&gt;Player" style="swimlane;html=1;fontStyle=0;childLayout=stackLayout;horizontal=1;startSize=32;fillColor=none;horizontalStack=0;resizeParent=1;resizeLast=0;collapsible=1;marginBottom=0;swimlaneFillColor=#ffffff;rounded=0;shadow=0;comic=0;labelBackgroundColor=#FFFFFF;strokeWidth=1;fontFamily=Verdana;fontSize=10;align=center;" parent="1" vertex="1">
          <mxGeometry x="-200" y="-232" width="500" height="302" as="geometry" />
        </mxCell>
        <mxCell id="tSDiauI4BHr5IlE3H6ec-18" value="+ playerOriginal : Player" style="text;html=1;strokeColor=none;fillColor=none;align=left;verticalAlign=top;spacingLeft=4;spacingRight=4;whiteSpace=wrap;overflow=hidden;rotatable=0;points=[[0,0.5],[1,0.5]];portConstraint=eastwest;labelBackgroundColor=#FFFFFF;" parent="17acba5748e5396b-20" vertex="1">
          <mxGeometry y="32" width="500" height="28" as="geometry" />
        </mxCell>
        <mxCell id="Tt4_UZsse2JY--aP2vom-36" value="" style="line;strokeWidth=1;fillColor=none;align=left;verticalAlign=middle;spacingTop=-1;spacingLeft=3;spacingRight=3;rotatable=0;labelPosition=right;points=[];portConstraint=eastwest;labelBackgroundColor=#FFFFFF;" parent="17acba5748e5396b-20" vertex="1">
          <mxGeometry y="60" width="500" height="40" as="geometry" />
        </mxCell>
        <mxCell id="J_sTyP8ABnYzC_URSm-T-1" value="+ addLeaderCard(LeaderCard card) : void&lt;br&gt;+ addVictroyPoints(int vp) : void&lt;br&gt;+ produce(String cardID)&lt;br&gt;+ checkSpace(Resource res, int level) : boolean&lt;br&gt;+ addResource(int level, Resource res) : void&lt;br&gt;+ removeResource(Resource res, String place) : void&lt;br&gt;+ checkMarketRes(Arraylist&amp;lt;Resource&amp;gt; requestedRes, ArraList&amp;lt;MarketRes&amp;gt;) : boolean&lt;br&gt;+ checkLevel(int level) : boolean&lt;br&gt;+ getAllResource() : ArrayList&amp;lt;Resource&amp;gt;&lt;br&gt;+ switchLeveles(Resource res, int orLevel, int finLevel) : void&lt;br&gt;+ canBuy(DevCard devCard, ArrayList&amp;lt;Resource&amp;gt; allPlayeres) : boolean&lt;br&gt;+ getLeaderFromID(String cardID) : LeaderCard&lt;br&gt;+ getProductionID() : ArrayList&amp;lt;String&amp;gt;&lt;br&gt;" style="text;html=1;strokeColor=none;fillColor=none;align=left;verticalAlign=middle;whiteSpace=wrap;rounded=0;labelBackgroundColor=#FFFFFF;" parent="17acba5748e5396b-20" vertex="1">
          <mxGeometry y="100" width="500" height="180" as="geometry" />
        </mxCell>
        <mxCell id="8uedm5YtxWgwwN68aBkR-3" style="edgeStyle=orthogonalEdgeStyle;rounded=0;orthogonalLoop=1;jettySize=auto;html=1;exitX=1;exitY=0.443;exitDx=0;exitDy=0;exitPerimeter=0;labelBackgroundColor=#FFFFFF;fillColor=none;" parent="1" source="J_sTyP8ABnYzC_URSm-T-20" target="Tt4_UZsse2JY--aP2vom-49" edge="1">
          <mxGeometry relative="1" as="geometry">
            <Array as="points">
              <mxPoint x="898" y="746" />
            </Array>
            <mxPoint x="897.659999999999" y="979.3499999999999" as="targetPoint" />
          </mxGeometry>
        </mxCell>
        <mxCell id="J_sTyP8ABnYzC_URSm-T-11" style="edgeStyle=orthogonalEdgeStyle;rounded=0;orthogonalLoop=1;jettySize=auto;html=1;labelBackgroundColor=#FFFFFF;fillColor=none;" parent="1" target="RtRzZt0xqBWtNR3uWcVC-19" edge="1">
          <mxGeometry relative="1" as="geometry">
            <mxPoint x="45" y="796" as="sourcePoint" />
            <Array as="points">
              <mxPoint x="45" y="796" />
            </Array>
          </mxGeometry>
        </mxCell>
        <mxCell id="5d2195bd80daf111-5" value="&lt;b&gt;Board&lt;/b&gt;" style="swimlane;html=1;fontStyle=0;childLayout=stackLayout;horizontal=1;startSize=26;fillColor=none;horizontalStack=0;resizeParent=1;resizeLast=0;collapsible=1;marginBottom=0;swimlaneFillColor=#ffffff;rounded=0;shadow=0;comic=0;labelBackgroundColor=#FFFFFF;strokeWidth=1;fontFamily=Verdana;fontSize=10;align=center;" parent="1" vertex="1">
          <mxGeometry x="30" y="660" width="280" height="160" as="geometry" />
        </mxCell>
        <mxCell id="J_sTyP8ABnYzC_URSm-T-12" value="- player : Player" style="text;html=1;strokeColor=none;fillColor=none;align=left;verticalAlign=middle;whiteSpace=wrap;rounded=0;labelBackgroundColor=#FFFFFF;" parent="5d2195bd80daf111-5" vertex="1">
          <mxGeometry y="26" width="280" height="34" as="geometry" />
        </mxCell>
        <mxCell id="J_sTyP8ABnYzC_URSm-T-20" value="+ hasResource(ArrayList&lt;Resource&gt; needed)&#xa;+ getDevFromID (String cardID) : DevCard&#xa;+ getProdID() : ArrayList&lt;String&gt;&#xa;" style="text;strokeColor=none;fillColor=none;align=left;verticalAlign=top;spacingLeft=4;spacingRight=4;overflow=hidden;rotatable=0;points=[[0,0.5],[1,0.5]];portConstraint=eastwest;labelBackgroundColor=#FFFFFF;" parent="5d2195bd80daf111-5" vertex="1">
          <mxGeometry y="60" width="280" height="70" as="geometry" />
        </mxCell>
        <mxCell id="J_sTyP8ABnYzC_URSm-T-14" value="" style="endArrow=none;html=1;exitX=0;exitY=0.056;exitDx=0;exitDy=0;exitPerimeter=0;entryX=1.002;entryY=0.037;entryDx=0;entryDy=0;entryPerimeter=0;labelBackgroundColor=#FFFFFF;fillColor=none;" parent="5d2195bd80daf111-5" source="J_sTyP8ABnYzC_URSm-T-20" target="J_sTyP8ABnYzC_URSm-T-20" edge="1">
          <mxGeometry width="50" height="50" relative="1" as="geometry">
            <mxPoint x="-40" y="90" as="sourcePoint" />
            <mxPoint x="270" y="50" as="targetPoint" />
            <Array as="points" />
          </mxGeometry>
        </mxCell>
        <mxCell id="5d2195bd80daf111-12" value="&lt;p style=&quot;margin: 0px ; margin-top: 4px ; text-align: center&quot;&gt;&lt;i&gt;enum&amp;nbsp;&lt;/i&gt;&lt;/p&gt;&lt;p style=&quot;margin: 0px ; margin-top: 4px ; text-align: center&quot;&gt;Resource&lt;/p&gt;&lt;hr size=&quot;1&quot;&gt;&lt;p style=&quot;margin: 0px ; margin-left: 4px&quot;&gt;- color : String&lt;br&gt;- type : Gold, Shield, Servant, Shield, Faith, Empty, Choice&lt;/p&gt;&lt;hr size=&quot;1&quot;&gt;&lt;p style=&quot;margin: 0px ; margin-left: 4px&quot;&gt;&lt;br&gt;&lt;/p&gt;" style="verticalAlign=top;align=left;overflow=fill;fontSize=12;fontFamily=Helvetica;html=1;rounded=0;shadow=0;comic=0;labelBackgroundColor=#FFFFFF;strokeWidth=1;fillColor=none;" parent="1" vertex="1">
          <mxGeometry x="-160" y="1240" width="320" height="100" as="geometry" />
        </mxCell>
        <mxCell id="RtRzZt0xqBWtNR3uWcVC-22" style="edgeStyle=orthogonalEdgeStyle;rounded=0;orthogonalLoop=1;jettySize=auto;html=1;entryX=0.639;entryY=0.004;entryDx=0;entryDy=0;entryPerimeter=0;labelBackgroundColor=#FFFFFF;fillColor=none;" parent="1" source="RtRzZt0xqBWtNR3uWcVC-19" target="5d2195bd80daf111-12" edge="1">
          <mxGeometry relative="1" as="geometry" />
        </mxCell>
        <mxCell id="RtRzZt0xqBWtNR3uWcVC-19" value="&lt;p style=&quot;margin: 0px ; margin-top: 4px ; text-align: center&quot;&gt;&lt;b&gt;StrongBox&lt;/b&gt;&lt;/p&gt;&lt;hr size=&quot;1&quot;&gt;&lt;p style=&quot;margin: 0px ; margin-left: 4px&quot;&gt;&lt;br&gt;&lt;/p&gt;&lt;hr size=&quot;1&quot;&gt;&lt;p style=&quot;margin: 0px ; margin-left: 4px&quot;&gt;+ addResources(Resource): void&lt;/p&gt;&lt;p style=&quot;margin: 0px ; margin-left: 4px&quot;&gt;+ removeResource(Resource res): boolean&lt;/p&gt;" style="verticalAlign=top;align=left;overflow=fill;fontSize=12;fontFamily=Helvetica;html=1;rounded=0;shadow=0;comic=0;labelBackgroundColor=#FFFFFF;strokeWidth=1;fillColor=none;" parent="1" vertex="1">
          <mxGeometry x="-110" y="905" width="310" height="145" as="geometry" />
        </mxCell>
        <mxCell id="RtRzZt0xqBWtNR3uWcVC-25" style="edgeStyle=orthogonalEdgeStyle;rounded=0;orthogonalLoop=1;jettySize=auto;html=1;labelBackgroundColor=#FFFFFF;fillColor=none;" parent="1" source="RtRzZt0xqBWtNR3uWcVC-20" target="5d2195bd80daf111-12" edge="1">
          <mxGeometry relative="1" as="geometry">
            <Array as="points">
              <mxPoint x="-255" y="1190" />
              <mxPoint x="-255" y="1190" />
            </Array>
          </mxGeometry>
        </mxCell>
        <mxCell id="RtRzZt0xqBWtNR3uWcVC-20" value="&lt;p style=&quot;margin: 0px ; margin-top: 4px ; text-align: center&quot;&gt;&lt;b&gt;WareHouse&lt;/b&gt;&lt;/p&gt;&lt;hr size=&quot;1&quot;&gt;&lt;p style=&quot;margin: 0px ; margin-left: 4px&quot;&gt;- level 1: Resource&lt;/p&gt;&lt;p style=&quot;margin: 0px ; margin-left: 4px&quot;&gt;- level 2: Resource[2]&lt;/p&gt;&lt;p style=&quot;margin: 0px ; margin-left: 4px&quot;&gt;- level 3: Resource[3]&lt;/p&gt;&lt;p style=&quot;margin: 0px ; margin-left: 4px&quot;&gt;~ levels ArraList &amp;lt;Resources&amp;gt;&lt;/p&gt;&lt;hr size=&quot;1&quot;&gt;&lt;p style=&quot;margin: 0px ; margin-left: 4px&quot;&gt;+ addResources(int livello, Resource res): void&lt;/p&gt;&lt;p style=&quot;margin: 0px ; margin-left: 4px&quot;&gt;+ getResources(): arrayList&amp;lt;Resources&amp;gt;&lt;/p&gt;&lt;p style=&quot;margin: 0px ; margin-left: 4px&quot;&gt;+ removeResource(Resource res): boolean&lt;/p&gt;&lt;p style=&quot;margin: 0px ; margin-left: 4px&quot;&gt;+ checkAvailability(Resource res): boolean&lt;/p&gt;&lt;p style=&quot;margin: 0px ; margin-left: 4px&quot;&gt;+ checkSpace(int livello, Resource ins): boolean&lt;/p&gt;&lt;p style=&quot;margin: 0px ; margin-left: 4px&quot;&gt;+ switchLevels(int livello1, int livello2): void&lt;/p&gt;" style="verticalAlign=top;align=left;overflow=fill;fontSize=12;fontFamily=Helvetica;html=1;rounded=0;shadow=0;comic=0;labelBackgroundColor=#FFFFFF;strokeWidth=1;fillColor=none;" parent="1" vertex="1">
          <mxGeometry x="-390" y="905" width="270" height="205" as="geometry" />
        </mxCell>
        <mxCell id="Tt4_UZsse2JY--aP2vom-6" style="edgeStyle=orthogonalEdgeStyle;rounded=0;orthogonalLoop=1;jettySize=auto;html=1;labelBackgroundColor=#FFFFFF;fillColor=none;" parent="1" source="RtRzZt0xqBWtNR3uWcVC-28" target="Tt4_UZsse2JY--aP2vom-1" edge="1">
          <mxGeometry relative="1" as="geometry" />
        </mxCell>
        <mxCell id="RtRzZt0xqBWtNR3uWcVC-28" value="&lt;p style=&quot;margin: 0px ; margin-top: 4px ; text-align: center&quot;&gt;&lt;b&gt;Slot&lt;/b&gt;&lt;/p&gt;&lt;hr size=&quot;1&quot;&gt;&lt;p style=&quot;margin: 0px ; margin-left: 4px&quot;&gt;- slots: arrayList&amp;lt;DevCard&amp;gt;[3]&lt;/p&gt;&lt;hr size=&quot;1&quot;&gt;&lt;p style=&quot;margin: 0px ; margin-left: 4px&quot;&gt;+ placeCard(DevCard card, int slot) : void&lt;/p&gt;&lt;p style=&quot;margin: 0px ; margin-left: 4px&quot;&gt;+ checkSpace(DevCard card, int slot): boolean&lt;/p&gt;&lt;p style=&quot;margin: 0px ; margin-left: 4px&quot;&gt;+ getFrontCards(): DevCards[3]&lt;/p&gt;&lt;p style=&quot;margin: 0px ; margin-left: 4px&quot;&gt;+ getAllCards() : ArrayList&amp;lt;DevCard&amp;gt;&amp;nbsp;&lt;/p&gt;" style="verticalAlign=top;align=left;overflow=fill;fontSize=12;fontFamily=Helvetica;html=1;rounded=0;shadow=0;comic=0;labelBackgroundColor=#FFFFFF;strokeWidth=1;fillColor=none;" parent="1" vertex="1">
          <mxGeometry x="230" y="905" width="260" height="150" as="geometry" />
        </mxCell>
        <mxCell id="RtRzZt0xqBWtNR3uWcVC-29" value="&lt;p style=&quot;margin: 0px ; margin-top: 4px ; text-align: center&quot;&gt;&lt;b&gt;FaithPath&lt;/b&gt;&lt;/p&gt;&lt;hr size=&quot;1&quot;&gt;&lt;p style=&quot;margin: 0px ; margin-left: 4px&quot;&gt;- advancement : int&lt;/p&gt;&lt;hr size=&quot;1&quot;&gt;&lt;p style=&quot;margin: 0px ; margin-left: 4px&quot;&gt;+ moveForward(int steps)&lt;/p&gt;&lt;p style=&quot;margin: 0px ; margin-left: 4px&quot;&gt;+ checkVictoryPoints(int oldPosition): int newPoints&lt;/p&gt;&lt;p style=&quot;margin: 0px ; margin-left: 4px&quot;&gt;+ checkPopeSpace(): boolean&lt;/p&gt;&lt;p style=&quot;margin: 0px ; margin-left: 4px&quot;&gt;+ checkVaticanSection() : boolean&lt;/p&gt;" style="verticalAlign=top;align=left;overflow=fill;fontSize=12;fontFamily=Helvetica;html=1;rounded=0;shadow=0;comic=0;labelBackgroundColor=#FFFFFF;strokeWidth=1;fillColor=none;" parent="1" vertex="1">
          <mxGeometry x="520" y="905" width="280" height="150" as="geometry" />
        </mxCell>
        <mxCell id="Tt4_UZsse2JY--aP2vom-1" value="&lt;p style=&quot;margin: 0px ; margin-top: 4px ; text-align: center&quot;&gt;&lt;br&gt;&lt;/p&gt;&lt;p style=&quot;margin: 0px ; margin-top: 4px ; text-align: center&quot;&gt;DevCard&lt;/p&gt;&lt;hr size=&quot;1&quot;&gt;&lt;p style=&quot;margin: 0px ; margin-left: 4px&quot;&gt;- color : String&lt;br&gt;- level : int&amp;nbsp;&lt;/p&gt;&lt;p style=&quot;margin: 0px ; margin-left: 4px&quot;&gt;- requires : arrayList&amp;lt;Resource&amp;gt;&lt;/p&gt;&lt;p style=&quot;margin: 0px ; margin-left: 4px&quot;&gt;- produce : arrayList&amp;lt;Resource&amp;gt;&amp;nbsp;&lt;/p&gt;&lt;p style=&quot;margin: 0px ; margin-left: 4px&quot;&gt;- price : arrayList&amp;lt;Resource&amp;gt;&lt;/p&gt;&lt;p style=&quot;margin: 0px ; margin-left: 4px&quot;&gt;- victoryPoint : int&lt;/p&gt;&lt;p style=&quot;margin: 0px ; margin-left: 4px&quot;&gt;- isEnable() : boolean&lt;/p&gt;&lt;p style=&quot;margin: 0px ; margin-left: 4px&quot;&gt;&lt;br&gt;&lt;/p&gt;&lt;hr size=&quot;1&quot;&gt;&lt;p style=&quot;margin: 0px ; margin-left: 4px&quot;&gt;&amp;nbsp;&lt;/p&gt;&lt;p style=&quot;margin: 0px ; margin-left: 4px&quot;&gt;+ getColor() : String&lt;/p&gt;&lt;p style=&quot;margin: 0px ; margin-left: 4px&quot;&gt;+ getLevel() : int&amp;nbsp;&lt;/p&gt;&lt;p style=&quot;margin: 0px ; margin-left: 4px&quot;&gt;+ produce() : &amp;nbsp;arrayList&amp;lt;Resource&amp;gt;()&lt;/p&gt;&lt;p style=&quot;margin: 0px ; margin-left: 4px&quot;&gt;+ canBeUsed : boolean;&lt;/p&gt;&lt;p style=&quot;margin: 0px ; margin-left: 4px&quot;&gt;+ disable() : void&lt;/p&gt;&lt;p style=&quot;margin: 0px ; margin-left: 4px&quot;&gt;+ enable() : void&lt;/p&gt;&lt;p style=&quot;margin: 0px ; margin-left: 4px&quot;&gt;+ getRequires() : ArrayList&amp;lt;Resource&amp;gt;&lt;/p&gt;&lt;p style=&quot;margin: 0px ; margin-left: 4px&quot;&gt;&lt;br&gt;&lt;/p&gt;&lt;p style=&quot;margin: 0px ; margin-left: 4px&quot;&gt;&lt;br&gt;&lt;/p&gt;" style="verticalAlign=top;align=left;overflow=fill;fontSize=12;fontFamily=Helvetica;html=1;rounded=0;shadow=0;comic=0;labelBackgroundColor=#FFFFFF;strokeWidth=1;fillColor=none;" parent="1" vertex="1">
          <mxGeometry x="220" y="1190" width="280" height="290" as="geometry" />
        </mxCell>
        <mxCell id="Tt4_UZsse2JY--aP2vom-9" value="&lt;p style=&quot;margin: 0px ; margin-top: 4px ; text-align: center&quot;&gt;&lt;i&gt;&amp;lt;&amp;lt;interface&amp;gt;&amp;gt;&amp;nbsp;&lt;/i&gt;&lt;/p&gt;&lt;p style=&quot;margin: 0px ; margin-top: 4px ; text-align: center&quot;&gt;LeaderCard&lt;/p&gt;&lt;hr size=&quot;1&quot;&gt;&lt;p style=&quot;margin: 0px ; margin-left: 4px&quot;&gt;- victoryPoint : int&lt;br&gt;&lt;/p&gt;&lt;p style=&quot;margin: 0px ; margin-left: 4px&quot;&gt;- isEnable() : boolean&lt;/p&gt;&lt;hr size=&quot;1&quot;&gt;&lt;p style=&quot;margin: 0px ; margin-left: 4px&quot;&gt;+ playCard() : void;&lt;br&gt;&lt;/p&gt;&lt;p style=&quot;margin: 0px ; margin-left: 4px&quot;&gt;+ canBePlayed(): boolean;&lt;/p&gt;" style="verticalAlign=top;align=left;overflow=fill;fontSize=12;fontFamily=Helvetica;html=1;rounded=0;shadow=0;comic=0;labelBackgroundColor=#FFFFFF;strokeWidth=1;fillColor=none;" parent="1" vertex="1">
          <mxGeometry x="1280" y="330" width="280" height="140" as="geometry" />
        </mxCell>
        <mxCell id="Tt4_UZsse2JY--aP2vom-10" value="&lt;p style=&quot;margin: 0px ; margin-top: 4px ; text-align: center&quot;&gt;&lt;b&gt;Discount&lt;/b&gt;&lt;/p&gt;&lt;hr size=&quot;1&quot;&gt;&lt;p style=&quot;margin: 0px ; margin-left: 4px&quot;&gt;- requires : DevCard[2];&lt;/p&gt;&lt;p style=&quot;margin: 0px ; margin-left: 4px&quot;&gt;- discount : Resource&lt;/p&gt;&lt;hr size=&quot;1&quot;&gt;&lt;p style=&quot;margin: 0px ; margin-left: 4px&quot;&gt;&lt;br&gt;&lt;/p&gt;" style="verticalAlign=top;align=left;overflow=fill;fontSize=12;fontFamily=Helvetica;html=1;rounded=0;shadow=0;comic=0;labelBackgroundColor=#FFFFFF;strokeWidth=1;fillColor=none;" parent="1" vertex="1">
          <mxGeometry x="810" y="550" width="150" height="85" as="geometry" />
        </mxCell>
        <mxCell id="Tt4_UZsse2JY--aP2vom-15" value="2" style="text;html=1;strokeColor=none;fillColor=none;align=center;verticalAlign=middle;whiteSpace=wrap;rounded=0;labelBackgroundColor=#FFFFFF;" parent="1" vertex="1">
          <mxGeometry x="1300" y="160" width="40" height="20" as="geometry" />
        </mxCell>
        <mxCell id="Tt4_UZsse2JY--aP2vom-23" value="&lt;p style=&quot;margin: 0px ; margin-top: 4px ; text-align: center&quot;&gt;&lt;b&gt;ExtraDeposit&lt;/b&gt;&lt;/p&gt;&lt;hr size=&quot;1&quot;&gt;&lt;p style=&quot;margin: 0px ; margin-left: 4px&quot;&gt;- requires : Resource&lt;/p&gt;&lt;hr size=&quot;1&quot;&gt;&lt;p style=&quot;margin: 0px ; margin-left: 4px&quot;&gt;&lt;br&gt;&lt;/p&gt;" style="verticalAlign=top;align=left;overflow=fill;fontSize=12;fontFamily=Helvetica;html=1;rounded=0;shadow=0;comic=0;labelBackgroundColor=#FFFFFF;strokeWidth=1;fillColor=none;" parent="1" vertex="1">
          <mxGeometry x="1100" y="555" width="160" height="75" as="geometry" />
        </mxCell>
        <mxCell id="Tt4_UZsse2JY--aP2vom-26" value="" style="endArrow=block;dashed=1;endFill=0;endSize=12;html=1;exitX=0.543;exitY=0.02;exitDx=0;exitDy=0;exitPerimeter=0;entryX=0.468;entryY=0.997;entryDx=0;entryDy=0;entryPerimeter=0;labelBackgroundColor=#FFFFFF;fillColor=none;" parent="1" source="Tt4_UZsse2JY--aP2vom-10" target="Tt4_UZsse2JY--aP2vom-9" edge="1">
          <mxGeometry width="160" relative="1" as="geometry">
            <mxPoint x="1040" y="560" as="sourcePoint" />
            <mxPoint x="1200" y="560" as="targetPoint" />
            <Array as="points">
              <mxPoint x="890" y="510" />
              <mxPoint x="1411" y="510" />
            </Array>
          </mxGeometry>
        </mxCell>
        <mxCell id="Tt4_UZsse2JY--aP2vom-28" value="" style="endArrow=block;dashed=1;endFill=0;endSize=12;html=1;entryX=0.464;entryY=0.997;entryDx=0;entryDy=0;entryPerimeter=0;labelBackgroundColor=#FFFFFF;fillColor=none;" parent="1" source="Tt4_UZsse2JY--aP2vom-23" target="Tt4_UZsse2JY--aP2vom-9" edge="1">
          <mxGeometry width="160" relative="1" as="geometry">
            <mxPoint x="1050.3199999999997" y="626.6999999999998" as="sourcePoint" />
            <mxPoint x="1410" y="450" as="targetPoint" />
            <Array as="points">
              <mxPoint x="1180" y="510" />
              <mxPoint x="1410" y="510" />
            </Array>
          </mxGeometry>
        </mxCell>
        <mxCell id="Tt4_UZsse2JY--aP2vom-29" value="&lt;p style=&quot;margin: 0px ; margin-top: 4px ; text-align: center&quot;&gt;&lt;b&gt;ExtraProd&lt;/b&gt;&lt;/p&gt;&lt;hr size=&quot;1&quot;&gt;&lt;p style=&quot;margin: 0px ; margin-left: 4px&quot;&gt;- requires : String&lt;/p&gt;&lt;p style=&quot;margin: 0px ; margin-left: 4px&quot;&gt;- prodResource: Resource&lt;/p&gt;&lt;p style=&quot;margin: 0px ; margin-left: 4px&quot;&gt;&lt;br&gt;&lt;/p&gt;&lt;p style=&quot;margin: 0px ; margin-left: 4px&quot;&gt;&lt;br&gt;&lt;/p&gt;&lt;p style=&quot;margin: 0px ; margin-left: 4px&quot;&gt;- canProduce(Resource choice) : boolean&lt;/p&gt;" style="verticalAlign=top;align=left;overflow=fill;fontSize=12;fontFamily=Helvetica;html=1;rounded=0;shadow=0;comic=0;labelBackgroundColor=#FFFFFF;strokeWidth=1;fillColor=none;" parent="1" vertex="1">
          <mxGeometry x="1370" y="544" width="245" height="130" as="geometry" />
        </mxCell>
        <mxCell id="Tt4_UZsse2JY--aP2vom-31" value="" style="endArrow=block;dashed=1;endFill=0;endSize=12;html=1;exitX=0.557;exitY=0.005;exitDx=0;exitDy=0;exitPerimeter=0;entryX=0.467;entryY=0.995;entryDx=0;entryDy=0;entryPerimeter=0;labelBackgroundColor=#FFFFFF;fillColor=none;" parent="1" source="Tt4_UZsse2JY--aP2vom-29" target="Tt4_UZsse2JY--aP2vom-9" edge="1">
          <mxGeometry width="160" relative="1" as="geometry">
            <mxPoint x="1340" y="625" as="sourcePoint" />
            <mxPoint x="1410" y="460" as="targetPoint" />
            <Array as="points">
              <mxPoint x="1507" y="510" />
              <mxPoint x="1410" y="510" />
            </Array>
          </mxGeometry>
        </mxCell>
        <mxCell id="Tt4_UZsse2JY--aP2vom-32" value="&lt;p style=&quot;margin: 0px ; margin-top: 4px ; text-align: center&quot;&gt;&lt;b&gt;ChangeResource&lt;/b&gt;&lt;/p&gt;&lt;hr size=&quot;1&quot;&gt;&lt;p style=&quot;margin: 0px ; margin-left: 4px&quot;&gt;- requires : arrayList&amp;lt;DevCards&amp;gt;&lt;/p&gt;&lt;p style=&quot;margin: 0px ; margin-left: 4px&quot;&gt;- prodResource: Resource&lt;/p&gt;&lt;p style=&quot;margin: 0px ; margin-left: 4px&quot;&gt;- change : Resource;&lt;/p&gt;&lt;hr size=&quot;1&quot;&gt;&lt;p style=&quot;margin: 0px ; margin-left: 4px&quot;&gt;+ change(Resource old) : Resource&lt;/p&gt;" style="verticalAlign=top;align=left;overflow=fill;fontSize=12;fontFamily=Helvetica;html=1;rounded=0;shadow=0;comic=0;labelBackgroundColor=#FFFFFF;strokeWidth=1;fillColor=none;" parent="1" vertex="1">
          <mxGeometry x="1710" y="544" width="290" height="105" as="geometry" />
        </mxCell>
        <mxCell id="Tt4_UZsse2JY--aP2vom-33" value="" style="endArrow=block;dashed=1;endFill=0;endSize=12;html=1;exitX=0.529;exitY=0.012;exitDx=0;exitDy=0;exitPerimeter=0;entryX=0.465;entryY=0.995;entryDx=0;entryDy=0;entryPerimeter=0;labelBackgroundColor=#FFFFFF;fillColor=none;" parent="1" source="Tt4_UZsse2JY--aP2vom-32" target="Tt4_UZsse2JY--aP2vom-9" edge="1">
          <mxGeometry width="160" relative="1" as="geometry">
            <mxPoint x="1631.5299999999997" y="615.0050000000001" as="sourcePoint" />
            <mxPoint x="1410" y="450" as="targetPoint" />
            <Array as="points">
              <mxPoint x="1863" y="510" />
              <mxPoint x="1550" y="510" />
              <mxPoint x="1410" y="510" />
            </Array>
          </mxGeometry>
        </mxCell>
        <mxCell id="Tt4_UZsse2JY--aP2vom-41" value="" style="endArrow=block;endFill=1;html=1;edgeStyle=orthogonalEdgeStyle;align=left;verticalAlign=top;entryX=0.5;entryY=0;entryDx=0;entryDy=0;labelBackgroundColor=#FFFFFF;fillColor=none;" parent="1" source="J_sTyP8ABnYzC_URSm-T-20" target="RtRzZt0xqBWtNR3uWcVC-29" edge="1">
          <mxGeometry x="-0.8537" y="-15" relative="1" as="geometry">
            <mxPoint x="360" y="840" as="sourcePoint" />
            <mxPoint x="410" y="825" as="targetPoint" />
            <mxPoint as="offset" />
            <Array as="points">
              <mxPoint x="660" y="766" />
            </Array>
          </mxGeometry>
        </mxCell>
        <mxCell id="Tt4_UZsse2JY--aP2vom-63" value="1" style="edgeLabel;resizable=0;html=1;align=left;verticalAlign=bottom;labelBackgroundColor=#FFFFFF;fillColor=none;" parent="Tt4_UZsse2JY--aP2vom-41" connectable="0" vertex="1">
          <mxGeometry x="-1" relative="1" as="geometry">
            <mxPoint x="1320" y="65" as="offset" />
          </mxGeometry>
        </mxCell>
        <mxCell id="Tt4_UZsse2JY--aP2vom-43" value="" style="endArrow=block;endFill=1;html=1;edgeStyle=orthogonalEdgeStyle;align=left;verticalAlign=top;entryX=0.5;entryY=0;entryDx=0;entryDy=0;exitX=0;exitY=0.75;exitDx=0;exitDy=0;labelBackgroundColor=#FFFFFF;fillColor=none;" parent="1" source="5d2195bd80daf111-5" target="RtRzZt0xqBWtNR3uWcVC-20" edge="1">
          <mxGeometry x="-0.8537" y="-15" relative="1" as="geometry">
            <mxPoint x="-60" y="840" as="sourcePoint" />
            <mxPoint x="300" y="895" as="targetPoint" />
            <Array as="points">
              <mxPoint x="-255" y="762" />
            </Array>
            <mxPoint as="offset" />
          </mxGeometry>
        </mxCell>
        <mxCell id="Tt4_UZsse2JY--aP2vom-45" value="" style="endArrow=block;endFill=1;html=1;edgeStyle=orthogonalEdgeStyle;align=left;verticalAlign=top;exitX=0.75;exitY=1;exitDx=0;exitDy=0;labelBackgroundColor=#FFFFFF;fillColor=none;" parent="1" source="5d2195bd80daf111-5" target="RtRzZt0xqBWtNR3uWcVC-28" edge="1">
          <mxGeometry x="-0.8537" y="-15" relative="1" as="geometry">
            <mxPoint x="340" y="870" as="sourcePoint" />
            <mxPoint x="590" y="915" as="targetPoint" />
            <mxPoint as="offset" />
            <Array as="points">
              <mxPoint x="240" y="890" />
              <mxPoint x="360" y="890" />
            </Array>
          </mxGeometry>
        </mxCell>
        <mxCell id="Tt4_UZsse2JY--aP2vom-49" value="&lt;p style=&quot;margin: 0px ; margin-top: 4px ; text-align: center&quot;&gt;&lt;b&gt;BasicDevSpace&lt;/b&gt;&lt;br&gt;&lt;/p&gt;&lt;hr size=&quot;1&quot;&gt;&lt;p style=&quot;margin: 0px ; margin-left: 4px&quot;&gt;- cardID : String&lt;/p&gt;&lt;p style=&quot;margin: 0px ; margin-left: 4px&quot;&gt;- board : Board&lt;/p&gt;&lt;p style=&quot;margin: 0px ; margin-left: 4px&quot;&gt;&lt;br&gt;&lt;/p&gt;&lt;p style=&quot;margin: 0px ; margin-left: 4px&quot;&gt;&lt;br&gt;&lt;/p&gt;&lt;p style=&quot;margin: 0px ; margin-left: 4px&quot;&gt;&lt;br&gt;&lt;/p&gt;&lt;p style=&quot;margin: 0px ; margin-left: 4px&quot;&gt;&lt;br&gt;&lt;/p&gt;" style="verticalAlign=top;align=left;overflow=fill;fontSize=12;fontFamily=Helvetica;html=1;rounded=0;shadow=0;comic=0;labelBackgroundColor=#FFFFFF;strokeWidth=1;fillColor=none;" parent="1" vertex="1">
          <mxGeometry x="840" y="910" width="340" height="100" as="geometry" />
        </mxCell>
        <mxCell id="Tt4_UZsse2JY--aP2vom-53" value="Table" style="swimlane;fontStyle=1;align=center;verticalAlign=top;childLayout=stackLayout;horizontal=1;startSize=26;horizontalStack=0;resizeParent=1;resizeParentMax=0;resizeLast=0;collapsible=1;marginBottom=0;labelBackgroundColor=#FFFFFF;fillColor=none;" parent="1" vertex="1">
          <mxGeometry x="2070" y="740" width="250" height="82" as="geometry" />
        </mxCell>
        <mxCell id="Tt4_UZsse2JY--aP2vom-68" value="- avaibleDev() : DevCards[4][3][4]" style="text;html=1;align=center;verticalAlign=middle;resizable=0;points=[];autosize=1;labelBackgroundColor=#FFFFFF;fillColor=none;" parent="Tt4_UZsse2JY--aP2vom-53" vertex="1">
          <mxGeometry y="26" width="250" height="20" as="geometry" />
        </mxCell>
        <mxCell id="Tt4_UZsse2JY--aP2vom-55" value="" style="line;strokeWidth=1;fillColor=none;align=left;verticalAlign=middle;spacingTop=-1;spacingLeft=3;spacingRight=3;rotatable=0;labelPosition=right;points=[];portConstraint=eastwest;labelBackgroundColor=#FFFFFF;" parent="Tt4_UZsse2JY--aP2vom-53" vertex="1">
          <mxGeometry y="46" width="250" height="6" as="geometry" />
        </mxCell>
        <mxCell id="Tt4_UZsse2JY--aP2vom-65" value="+ buyDev( String Color, int level ) : DevCard&lt;br&gt;+ getDevFromID(String cardID) : DevCard" style="text;html=1;align=center;verticalAlign=middle;resizable=0;points=[];autosize=1;labelBackgroundColor=#FFFFFF;fillColor=none;" parent="Tt4_UZsse2JY--aP2vom-53" vertex="1">
          <mxGeometry y="52" width="250" height="30" as="geometry" />
        </mxCell>
        <mxCell id="Tt4_UZsse2JY--aP2vom-64" value="&lt;p style=&quot;margin: 0px ; margin-top: 4px ; text-align: center&quot;&gt;&lt;b&gt;Market&lt;/b&gt;&lt;/p&gt;&lt;hr size=&quot;1&quot;&gt;&lt;p style=&quot;margin: 0px ; margin-left: 4px&quot;&gt;- actualSituation : Resource[4][3]&amp;nbsp;&lt;/p&gt;&lt;p style=&quot;margin: 0px ; margin-left: 4px&quot;&gt;- freeOne: Resource&lt;/p&gt;&lt;p style=&quot;margin: 0px ; margin-left: 4px&quot;&gt;- change : Resource;&lt;/p&gt;&lt;hr size=&quot;1&quot;&gt;&lt;p style=&quot;margin: 0px ; margin-left: 4px&quot;&gt;+ getColumn ( int col) : arrayList&amp;lt;Resource&amp;gt;&amp;nbsp;&lt;/p&gt;&lt;p style=&quot;margin: 0px ; margin-left: 4px&quot;&gt;+ getRow (int row) : arrayList&amp;lt;Resource&amp;gt;&lt;/p&gt;&lt;p style=&quot;margin: 0px ; margin-left: 4px&quot;&gt;+ getFree() : resource&lt;/p&gt;&lt;p style=&quot;margin: 0px ; margin-left: 4px&quot;&gt;+ getMarket() : Resource[4][3]&lt;/p&gt;" style="verticalAlign=top;align=left;overflow=fill;fontSize=12;fontFamily=Helvetica;html=1;rounded=0;shadow=0;comic=0;labelBackgroundColor=#FFFFFF;strokeWidth=1;fillColor=none;" parent="1" vertex="1">
          <mxGeometry x="1890" y="1020" width="260" height="160" as="geometry" />
        </mxCell>
        <mxCell id="Tt4_UZsse2JY--aP2vom-74" value="" style="endArrow=block;endFill=1;html=1;edgeStyle=orthogonalEdgeStyle;align=left;verticalAlign=top;exitX=0.514;exitY=1.05;exitDx=0;exitDy=0;exitPerimeter=0;entryX=0.996;entryY=0.619;entryDx=0;entryDy=0;entryPerimeter=0;labelBackgroundColor=#FFFFFF;fillColor=none;" parent="1" target="Tt4_UZsse2JY--aP2vom-1" edge="1">
          <mxGeometry x="-0.9759" y="31" relative="1" as="geometry">
            <mxPoint x="2198.5" y="833" as="sourcePoint" />
            <mxPoint x="910" y="1210" as="targetPoint" />
            <Array as="points">
              <mxPoint x="2199" y="1370" />
            </Array>
            <mxPoint as="offset" />
          </mxGeometry>
        </mxCell>
        <mxCell id="Tt4_UZsse2JY--aP2vom-77" value="" style="endArrow=block;endFill=1;html=1;edgeStyle=orthogonalEdgeStyle;align=left;verticalAlign=top;exitX=0.168;exitY=0.992;exitDx=0;exitDy=0;exitPerimeter=0;labelBackgroundColor=#FFFFFF;fillColor=none;" parent="1" edge="1">
          <mxGeometry x="-0.7597" y="30" relative="1" as="geometry">
            <mxPoint x="2111.999999999999" y="831.8400000000001" as="sourcePoint" />
            <mxPoint x="2112" y="1020" as="targetPoint" />
            <Array as="points">
              <mxPoint x="2112" y="1020" />
            </Array>
            <mxPoint as="offset" />
          </mxGeometry>
        </mxCell>
        <mxCell id="Tt4_UZsse2JY--aP2vom-84" value="&lt;p style=&quot;margin: 0px ; margin-top: 4px ; text-align: center&quot;&gt;&lt;b&gt;TempBox&lt;/b&gt;&lt;/p&gt;&lt;hr size=&quot;1&quot;&gt;&lt;p style=&quot;margin: 0px ; margin-left: 4px&quot;&gt;&lt;br&gt;&lt;/p&gt;&lt;hr size=&quot;1&quot;&gt;&lt;p style=&quot;margin: 0px ; margin-left: 4px&quot;&gt;+ addResources(Resource): void&lt;/p&gt;&lt;p style=&quot;margin: 0px ; margin-left: 4px&quot;&gt;+ moveToStrongBox() : void&lt;/p&gt;&lt;p style=&quot;margin: 0px ; margin-left: 4px&quot;&gt;+ filterFaithPoints() : ArrayList&amp;lt;Resource&amp;gt;&lt;/p&gt;" style="verticalAlign=top;align=left;overflow=fill;fontSize=12;fontFamily=Helvetica;html=1;rounded=0;shadow=0;comic=0;labelBackgroundColor=#FFFFFF;strokeWidth=1;fillColor=none;" parent="1" vertex="1">
          <mxGeometry x="-450" y="1400" width="310" height="120" as="geometry" />
        </mxCell>
        <mxCell id="Tt4_UZsse2JY--aP2vom-85" value="" style="endArrow=block;endFill=1;html=1;edgeStyle=orthogonalEdgeStyle;align=left;verticalAlign=top;entryX=0.097;entryY=-0.008;entryDx=0;entryDy=0;entryPerimeter=0;exitX=0.002;exitY=0.271;exitDx=0;exitDy=0;exitPerimeter=0;labelBackgroundColor=#FFFFFF;fillColor=none;" parent="1" source="J_sTyP8ABnYzC_URSm-T-20" target="Tt4_UZsse2JY--aP2vom-84" edge="1">
          <mxGeometry x="-0.8537" y="-15" relative="1" as="geometry">
            <mxPoint x="-10" y="780" as="sourcePoint" />
            <mxPoint x="-254.03999999999996" y="915" as="targetPoint" />
            <Array as="points">
              <mxPoint x="-10" y="730" />
              <mxPoint x="-420" y="730" />
            </Array>
            <mxPoint as="offset" />
          </mxGeometry>
        </mxCell>
        <mxCell id="Tt4_UZsse2JY--aP2vom-87" style="edgeStyle=orthogonalEdgeStyle;rounded=0;orthogonalLoop=1;jettySize=auto;html=1;exitX=1;exitY=0.5;exitDx=0;exitDy=0;entryX=0.5;entryY=1;entryDx=0;entryDy=0;labelBackgroundColor=#FFFFFF;fillColor=none;" parent="1" source="Tt4_UZsse2JY--aP2vom-84" target="5d2195bd80daf111-12" edge="1">
          <mxGeometry relative="1" as="geometry">
            <Array as="points">
              <mxPoint y="1440" />
            </Array>
            <mxPoint x="-365" y="1370" as="sourcePoint" />
            <mxPoint x="-330" y="1250" as="targetPoint" />
          </mxGeometry>
        </mxCell>
        <mxCell id="tSDiauI4BHr5IlE3H6ec-12" value="&lt;b&gt;DiscountPlayer&lt;/b&gt;" style="swimlane;html=1;fontStyle=0;childLayout=stackLayout;horizontal=1;startSize=32;fillColor=none;horizontalStack=0;resizeParent=1;resizeLast=0;collapsible=1;marginBottom=0;swimlaneFillColor=#ffffff;rounded=0;shadow=0;comic=0;labelBackgroundColor=#FFFFFF;strokeWidth=1;fontFamily=Verdana;fontSize=10;align=center;" parent="1" vertex="1">
          <mxGeometry x="490" y="-148" width="420" height="128" as="geometry" />
        </mxCell>
        <mxCell id="Tt4_UZsse2JY--aP2vom-22" value="- discounts: ArrayList &amp;lt;Resource&amp;gt;" style="text;html=1;strokeColor=none;fillColor=none;align=left;verticalAlign=top;spacingLeft=4;spacingRight=4;whiteSpace=wrap;overflow=hidden;rotatable=0;points=[[0,0.5],[1,0.5]];portConstraint=eastwest;labelBackgroundColor=#FFFFFF;" parent="tSDiauI4BHr5IlE3H6ec-12" vertex="1">
          <mxGeometry y="32" width="420" height="38" as="geometry" />
        </mxCell>
        <mxCell id="tSDiauI4BHr5IlE3H6ec-13" value="" style="line;strokeWidth=1;fillColor=none;align=left;verticalAlign=middle;spacingTop=-1;spacingLeft=3;spacingRight=3;rotatable=0;labelPosition=right;points=[];portConstraint=eastwest;labelBackgroundColor=#FFFFFF;" parent="tSDiauI4BHr5IlE3H6ec-12" vertex="1">
          <mxGeometry y="70" width="420" height="8" as="geometry" />
        </mxCell>
        <mxCell id="tSDiauI4BHr5IlE3H6ec-35" value="+&amp;nbsp;canBuy(DevCard devCard, ArrayList&amp;lt;Resource&amp;gt; allPlayeres) : boolean" style="text;html=1;strokeColor=none;fillColor=none;align=left;verticalAlign=top;spacingLeft=4;spacingRight=4;whiteSpace=wrap;overflow=hidden;rotatable=0;points=[[0,0.5],[1,0.5]];portConstraint=eastwest;labelBackgroundColor=#FFFFFF;" parent="tSDiauI4BHr5IlE3H6ec-12" vertex="1">
          <mxGeometry y="78" width="420" height="32" as="geometry" />
        </mxCell>
        <mxCell id="tSDiauI4BHr5IlE3H6ec-14" value="&lt;b&gt;ExtraDepositPlayer&lt;/b&gt;" style="swimlane;html=1;fontStyle=0;childLayout=stackLayout;horizontal=1;startSize=32;fillColor=none;horizontalStack=0;resizeParent=1;resizeLast=0;collapsible=1;marginBottom=0;swimlaneFillColor=#ffffff;rounded=0;shadow=0;comic=0;labelBackgroundColor=#FFFFFF;strokeWidth=1;fontFamily=Verdana;fontSize=10;align=center;" parent="1" vertex="1">
          <mxGeometry x="490" y="-430" width="350" height="260" as="geometry" />
        </mxCell>
        <mxCell id="J_sTyP8ABnYzC_URSm-T-3" value="- card : ExtraDeposit&lt;br&gt;- addedLevel : int&amp;nbsp;&lt;br&gt;- placeableRes : Resource&lt;br&gt;- extraDep : ArrayList&amp;lt;ExtraDepositLevel&amp;gt;" style="text;html=1;strokeColor=none;fillColor=none;align=left;verticalAlign=middle;whiteSpace=wrap;rounded=0;labelBackgroundColor=#FFFFFF;" parent="tSDiauI4BHr5IlE3H6ec-14" vertex="1">
          <mxGeometry y="32" width="350" height="68" as="geometry" />
        </mxCell>
        <mxCell id="tSDiauI4BHr5IlE3H6ec-15" value="" style="line;strokeWidth=1;fillColor=none;align=left;verticalAlign=middle;spacingTop=-1;spacingLeft=3;spacingRight=3;rotatable=0;labelPosition=right;points=[];portConstraint=eastwest;labelBackgroundColor=#FFFFFF;" parent="tSDiauI4BHr5IlE3H6ec-14" vertex="1">
          <mxGeometry y="100" width="350" height="38" as="geometry" />
        </mxCell>
        <mxCell id="J_sTyP8ABnYzC_URSm-T-5" value="+ checkLevel(int level) : boolean&lt;br&gt;+ checkSpace(Resource res, int level) : boolean&lt;br&gt;+ checkSwitch(int&amp;nbsp;origin,&amp;nbsp;int&amp;nbsp;dest)&lt;br&gt;+ switchLeveles(Resource res, int orLevel, int finLevel) : void&lt;br&gt;+ addResource(int level, Resource res) : void&lt;br&gt;+ removeResource(Resource res, String place) : void&lt;br&gt;+ getAllResource() : ArrayList&amp;lt;Resource&amp;gt;&lt;br&gt;- add(Resource res, int level) : void&lt;br&gt;- remove(Resource res, int level) : void" style="text;html=1;strokeColor=none;fillColor=none;align=left;verticalAlign=middle;whiteSpace=wrap;rounded=0;labelBackgroundColor=#FFFFFF;" parent="tSDiauI4BHr5IlE3H6ec-14" vertex="1">
          <mxGeometry y="138" width="350" height="102" as="geometry" />
        </mxCell>
        <mxCell id="tSDiauI4BHr5IlE3H6ec-16" value="&lt;b&gt;ChangeResPlayer&lt;/b&gt;" style="swimlane;html=1;fontStyle=0;childLayout=stackLayout;horizontal=1;startSize=32;fillColor=none;horizontalStack=0;resizeParent=1;resizeLast=0;collapsible=1;marginBottom=0;swimlaneFillColor=#ffffff;rounded=0;shadow=0;comic=0;labelBackgroundColor=#FFFFFF;strokeWidth=1;fontFamily=Verdana;fontSize=10;align=center;" parent="1" vertex="1">
          <mxGeometry x="490" y="60" width="500" height="126" as="geometry" />
        </mxCell>
        <mxCell id="Tt4_UZsse2JY--aP2vom-35" value="- change : ArrayList &amp;lt;Resource&amp;gt;" style="text;html=1;strokeColor=none;fillColor=none;align=left;verticalAlign=top;spacingLeft=4;spacingRight=4;whiteSpace=wrap;overflow=hidden;rotatable=0;points=[[0,0.5],[1,0.5]];portConstraint=eastwest;labelBackgroundColor=#FFFFFF;" parent="tSDiauI4BHr5IlE3H6ec-16" vertex="1">
          <mxGeometry y="32" width="500" height="28" as="geometry" />
        </mxCell>
        <mxCell id="tSDiauI4BHr5IlE3H6ec-17" value="" style="line;strokeWidth=1;fillColor=none;align=left;verticalAlign=middle;spacingTop=-1;spacingLeft=3;spacingRight=3;rotatable=0;labelPosition=right;points=[];portConstraint=eastwest;labelBackgroundColor=#FFFFFF;" parent="tSDiauI4BHr5IlE3H6ec-16" vertex="1">
          <mxGeometry y="60" width="500" height="28" as="geometry" />
        </mxCell>
        <mxCell id="tSDiauI4BHr5IlE3H6ec-37" value="+ checkMarketRes(ArrayList&amp;lt;Resource&amp;gt; requestedRes, ArrayList&amp;lt;Resource&amp;gt; marketRes)&lt;br&gt;+ getChenge() : ArrayList&amp;lt;Resource&amp;gt;" style="text;html=1;strokeColor=none;fillColor=none;align=left;verticalAlign=top;spacingLeft=4;spacingRight=4;whiteSpace=wrap;overflow=hidden;rotatable=0;points=[[0,0.5],[1,0.5]];portConstraint=eastwest;labelBackgroundColor=#FFFFFF;" parent="tSDiauI4BHr5IlE3H6ec-16" vertex="1">
          <mxGeometry y="88" width="500" height="38" as="geometry" />
        </mxCell>
        <mxCell id="tSDiauI4BHr5IlE3H6ec-30" style="edgeStyle=orthogonalEdgeStyle;rounded=0;orthogonalLoop=1;jettySize=auto;html=1;exitX=0.5;exitY=1;exitDx=0;exitDy=0;labelBackgroundColor=#FFFFFF;fillColor=none;" parent="1" source="tSDiauI4BHr5IlE3H6ec-1" target="5d2195bd80daf111-5" edge="1">
          <mxGeometry relative="1" as="geometry">
            <Array as="points">
              <mxPoint x="50" y="640" />
              <mxPoint x="175" y="640" />
            </Array>
            <mxPoint x="61.070000000000164" y="490.0100000000002" as="sourcePoint" />
          </mxGeometry>
        </mxCell>
        <mxCell id="jK1wx_Sz_6H6Cxe0sjLm-7" value="&lt;b&gt;ExtraProdPlayer&lt;/b&gt;" style="swimlane;html=1;fontStyle=0;childLayout=stackLayout;horizontal=1;startSize=32;fillColor=none;horizontalStack=0;resizeParent=1;resizeLast=0;collapsible=1;marginBottom=0;swimlaneFillColor=#ffffff;rounded=0;shadow=0;comic=0;labelBackgroundColor=#FFFFFF;strokeWidth=1;fontFamily=Verdana;fontSize=10;align=center;" parent="1" vertex="1">
          <mxGeometry x="490" y="-650" width="270" height="156" as="geometry" />
        </mxCell>
        <mxCell id="J_sTyP8ABnYzC_URSm-T-6" value="- extraProdIDs : ArrayList&amp;lt;String&amp;gt;&lt;br&gt;- required : ArrayList&amp;lt;Resource&amp;gt;" style="text;html=1;strokeColor=none;fillColor=none;align=left;verticalAlign=middle;whiteSpace=wrap;rounded=0;labelBackgroundColor=#FFFFFF;" parent="jK1wx_Sz_6H6Cxe0sjLm-7" vertex="1">
          <mxGeometry y="32" width="270" height="58" as="geometry" />
        </mxCell>
        <mxCell id="jK1wx_Sz_6H6Cxe0sjLm-8" value="f" style="line;strokeWidth=1;fillColor=none;align=left;verticalAlign=middle;spacingTop=-1;spacingLeft=3;spacingRight=3;rotatable=0;labelPosition=right;points=[];portConstraint=eastwest;labelBackgroundColor=#FFFFFF;" parent="jK1wx_Sz_6H6Cxe0sjLm-7" vertex="1">
          <mxGeometry y="90" width="270" height="18" as="geometry" />
        </mxCell>
        <mxCell id="J_sTyP8ABnYzC_URSm-T-7" value="+ produce(String cardID)&lt;br&gt;+ getExtraProdID() : ArrayList&amp;lt;String&amp;gt;&lt;br&gt;" style="text;html=1;strokeColor=none;fillColor=none;align=left;verticalAlign=middle;whiteSpace=wrap;rounded=0;labelBackgroundColor=#FFFFFF;" parent="jK1wx_Sz_6H6Cxe0sjLm-7" vertex="1">
          <mxGeometry y="108" width="270" height="48" as="geometry" />
        </mxCell>
        <mxCell id="jK1wx_Sz_6H6Cxe0sjLm-9" value="" style="endArrow=block;endSize=16;endFill=0;html=1;entryX=0.999;entryY=0.396;entryDx=0;entryDy=0;entryPerimeter=0;exitX=0;exitY=0.203;exitDx=0;exitDy=0;exitPerimeter=0;fillColor=none;labelBackgroundColor=#FFFFFF;" parent="1" source="tSDiauI4BHr5IlE3H6ec-35" edge="1">
          <mxGeometry width="160" relative="1" as="geometry">
            <mxPoint x="-500" y="-30" as="sourcePoint" />
            <mxPoint x="299.73" y="-64.68000000000006" as="targetPoint" />
            <Array as="points" />
          </mxGeometry>
        </mxCell>
        <mxCell id="jK1wx_Sz_6H6Cxe0sjLm-10" value="" style="endArrow=block;endSize=16;endFill=0;html=1;entryX=0.999;entryY=0.876;entryDx=0;entryDy=0;entryPerimeter=0;fillColor=none;labelBackgroundColor=#FFFFFF;" parent="1" edge="1">
          <mxGeometry width="160" relative="1" as="geometry">
            <mxPoint x="490" y="-306" as="sourcePoint" />
            <mxPoint x="299.73" y="-64.41399999999999" as="targetPoint" />
            <Array as="points">
              <mxPoint x="410" y="-306" />
              <mxPoint x="410" y="-226" />
              <mxPoint x="410" y="-64" />
            </Array>
          </mxGeometry>
        </mxCell>
        <mxCell id="jK1wx_Sz_6H6Cxe0sjLm-11" value="" style="endArrow=block;endSize=16;endFill=0;html=1;entryX=1;entryY=0.374;entryDx=0;entryDy=0;entryPerimeter=0;exitX=0;exitY=1;exitDx=0;exitDy=0;fillColor=none;labelBackgroundColor=#FFFFFF;" parent="1" source="J_sTyP8ABnYzC_URSm-T-6" target="J_sTyP8ABnYzC_URSm-T-1" edge="1">
          <mxGeometry width="160" relative="1" as="geometry">
            <mxPoint x="493.24000000000024" y="-229.99400000000014" as="sourcePoint" />
            <mxPoint x="300.27" y="-65.70000000000005" as="targetPoint" />
            <Array as="points">
              <mxPoint x="410" y="-560" />
              <mxPoint x="410.27" y="-230" />
              <mxPoint x="410" y="-65" />
            </Array>
          </mxGeometry>
        </mxCell>
        <mxCell id="jK1wx_Sz_6H6Cxe0sjLm-12" value="" style="endArrow=block;endSize=16;endFill=0;html=1;exitX=0;exitY=0.5;exitDx=0;exitDy=0;entryX=1;entryY=0.375;entryDx=0;entryDy=0;entryPerimeter=0;fillColor=none;labelBackgroundColor=#FFFFFF;" parent="1" source="Tt4_UZsse2JY--aP2vom-35" target="J_sTyP8ABnYzC_URSm-T-1" edge="1">
          <mxGeometry width="160" relative="1" as="geometry">
            <mxPoint x="480.27" y="-63.581016693823585" as="sourcePoint" />
            <mxPoint x="300" y="-66" as="targetPoint" />
            <Array as="points">
              <mxPoint x="410" y="106" />
              <mxPoint x="410" y="-64" />
            </Array>
          </mxGeometry>
        </mxCell>
        <mxCell id="jK1wx_Sz_6H6Cxe0sjLm-13" value="" style="endArrow=block;endSize=16;endFill=0;html=1;entryX=0.5;entryY=1;entryDx=0;entryDy=0;labelBackgroundColor=#FFFFFF;fillColor=none;" parent="1" source="tSDiauI4BHr5IlE3H6ec-1" target="17acba5748e5396b-20" edge="1">
          <mxGeometry width="160" relative="1" as="geometry">
            <mxPoint x="165" y="300" as="sourcePoint" />
            <mxPoint x="320" y="350" as="targetPoint" />
          </mxGeometry>
        </mxCell>
        <mxCell id="J_sTyP8ABnYzC_URSm-T-9" value="" style="endArrow=none;html=1;exitX=0;exitY=0.75;exitDx=0;exitDy=0;labelBackgroundColor=#FFFFFF;fillColor=none;" parent="1" source="Tt4_UZsse2JY--aP2vom-49" edge="1">
          <mxGeometry width="50" height="50" relative="1" as="geometry">
            <mxPoint x="950" y="1010" as="sourcePoint" />
            <mxPoint x="1180" y="985" as="targetPoint" />
          </mxGeometry>
        </mxCell>
        <mxCell id="zH7eEooTLA6w7Kah5ZLw-95" style="edgeStyle=orthogonalEdgeStyle;rounded=0;orthogonalLoop=1;jettySize=auto;html=1;entryX=0;entryY=0.5;entryDx=0;entryDy=0;labelBackgroundColor=#FFFFFF;fillColor=none;" parent="1" source="zH7eEooTLA6w7Kah5ZLw-8" target="J_sTyP8ABnYzC_URSm-T-1" edge="1">
          <mxGeometry relative="1" as="geometry">
            <Array as="points">
              <mxPoint x="429" y="1810" />
              <mxPoint x="-1100" y="1810" />
              <mxPoint x="-1100" y="-42" />
            </Array>
          </mxGeometry>
        </mxCell>
        <mxCell id="zH7eEooTLA6w7Kah5ZLw-8" value="&lt;&lt;interface&gt;&gt;&#xa;Update" style="swimlane;fontStyle=1;align=center;verticalAlign=top;childLayout=stackLayout;horizontal=1;startSize=40;horizontalStack=0;resizeParent=1;resizeParentMax=0;resizeLast=0;collapsible=1;marginBottom=0;labelBackgroundColor=#FFFFFF;fillColor=none;" parent="1" vertex="1">
          <mxGeometry x="249" y="2002" width="360" height="106" as="geometry">
            <mxRectangle x="182" y="1730" width="110" height="30" as="alternateBounds" />
          </mxGeometry>
        </mxCell>
        <mxCell id="zH7eEooTLA6w7Kah5ZLw-9" value="" style="line;strokeWidth=1;fillColor=none;align=left;verticalAlign=middle;spacingTop=-1;spacingLeft=3;spacingRight=3;rotatable=0;labelPosition=right;points=[];portConstraint=eastwest;labelBackgroundColor=#FFFFFF;" parent="zH7eEooTLA6w7Kah5ZLw-8" vertex="1">
          <mxGeometry y="40" width="360" height="30" as="geometry" />
        </mxCell>
        <mxCell id="zH7eEooTLA6w7Kah5ZLw-10" value="+ handleUpdate(PlayerData data)" style="text;strokeColor=none;fillColor=none;align=left;verticalAlign=top;spacingLeft=4;spacingRight=4;overflow=hidden;rotatable=0;points=[[0,0.5],[1,0.5]];portConstraint=eastwest;labelBackgroundColor=#FFFFFF;" parent="zH7eEooTLA6w7Kah5ZLw-8" vertex="1">
          <mxGeometry y="70" width="360" height="36" as="geometry" />
        </mxCell>
        <mxCell id="zH7eEooTLA6w7Kah5ZLw-11" style="edgeStyle=orthogonalEdgeStyle;rounded=0;orthogonalLoop=1;jettySize=auto;html=1;entryX=0.505;entryY=1.001;entryDx=0;entryDy=0;entryPerimeter=0;exitX=0.5;exitY=0;exitDx=0;exitDy=0;labelBackgroundColor=#FFFFFF;fillColor=none;" parent="1" source="zH7eEooTLA6w7Kah5ZLw-48" target="zH7eEooTLA6w7Kah5ZLw-10" edge="1">
          <mxGeometry relative="1" as="geometry">
            <Array as="points">
              <mxPoint x="-36" y="2300" />
              <mxPoint x="431" y="2300" />
            </Array>
            <mxPoint x="-437" y="2200" as="targetPoint" />
          </mxGeometry>
        </mxCell>
        <mxCell id="zH7eEooTLA6w7Kah5ZLw-73" style="edgeStyle=orthogonalEdgeStyle;rounded=0;orthogonalLoop=1;jettySize=auto;html=1;entryX=0;entryY=0.5;entryDx=0;entryDy=0;labelBackgroundColor=#FFFFFF;fillColor=none;" parent="1" source="zH7eEooTLA6w7Kah5ZLw-12" target="zH7eEooTLA6w7Kah5ZLw-56" edge="1">
          <mxGeometry relative="1" as="geometry" />
        </mxCell>
        <mxCell id="zH7eEooTLA6w7Kah5ZLw-77" style="edgeStyle=orthogonalEdgeStyle;rounded=0;orthogonalLoop=1;jettySize=auto;html=1;entryX=0;entryY=0.5;entryDx=0;entryDy=0;exitX=0.25;exitY=1;exitDx=0;exitDy=0;labelBackgroundColor=#FFFFFF;fillColor=none;" parent="1" source="zH7eEooTLA6w7Kah5ZLw-12" target="zH7eEooTLA6w7Kah5ZLw-75" edge="1">
          <mxGeometry relative="1" as="geometry" />
        </mxCell>
        <mxCell id="zH7eEooTLA6w7Kah5ZLw-12" value="MarketUpdate" style="swimlane;fontStyle=1;align=center;verticalAlign=top;childLayout=stackLayout;horizontal=1;startSize=26;horizontalStack=0;resizeParent=1;resizeParentMax=0;resizeLast=0;collapsible=1;marginBottom=0;labelBackgroundColor=#FFFFFF;fillColor=none;" parent="1" vertex="1">
          <mxGeometry x="-551" y="2400" width="288" height="134" as="geometry" />
        </mxCell>
        <mxCell id="zH7eEooTLA6w7Kah5ZLw-13" value="- turnState : ArrayList&lt;TurnState&gt; &#xa;- playerID : String&#xa;- wareHouse : ArrayList&lt;Resource[]&gt;&#xa;- market : Resource[][]" style="text;strokeColor=none;fillColor=none;align=left;verticalAlign=top;spacingLeft=4;spacingRight=4;overflow=hidden;rotatable=0;points=[[0,0.5],[1,0.5]];portConstraint=eastwest;labelBackgroundColor=#FFFFFF;" parent="zH7eEooTLA6w7Kah5ZLw-12" vertex="1">
          <mxGeometry y="26" width="288" height="84" as="geometry" />
        </mxCell>
        <mxCell id="zH7eEooTLA6w7Kah5ZLw-14" value="" style="line;strokeWidth=1;fillColor=none;align=left;verticalAlign=middle;spacingTop=-1;spacingLeft=3;spacingRight=3;rotatable=0;labelPosition=right;points=[];portConstraint=eastwest;labelBackgroundColor=#FFFFFF;" parent="zH7eEooTLA6w7Kah5ZLw-12" vertex="1">
          <mxGeometry y="110" width="288" height="24" as="geometry" />
        </mxCell>
        <mxCell id="zH7eEooTLA6w7Kah5ZLw-15" style="edgeStyle=orthogonalEdgeStyle;rounded=0;orthogonalLoop=1;jettySize=auto;html=1;exitX=0.5;exitY=0;exitDx=0;exitDy=0;entryX=0.505;entryY=1.004;entryDx=0;entryDy=0;entryPerimeter=0;labelBackgroundColor=#FFFFFF;fillColor=none;" parent="1" source="zH7eEooTLA6w7Kah5ZLw-12" target="zH7eEooTLA6w7Kah5ZLw-10" edge="1">
          <mxGeometry relative="1" as="geometry">
            <mxPoint x="-1321" y="2270" as="sourcePoint" />
            <mxPoint x="319" y="2140" as="targetPoint" />
            <Array as="points">
              <mxPoint x="-407" y="2300" />
              <mxPoint x="431" y="2300" />
            </Array>
          </mxGeometry>
        </mxCell>
        <mxCell id="zH7eEooTLA6w7Kah5ZLw-16" style="edgeStyle=orthogonalEdgeStyle;rounded=0;orthogonalLoop=1;jettySize=auto;html=1;entryX=0.505;entryY=0.997;entryDx=0;entryDy=0;entryPerimeter=0;exitX=0.5;exitY=0;exitDx=0;exitDy=0;labelBackgroundColor=#FFFFFF;fillColor=none;" parent="1" source="zH7eEooTLA6w7Kah5ZLw-17" target="zH7eEooTLA6w7Kah5ZLw-10" edge="1">
          <mxGeometry relative="1" as="geometry">
            <Array as="points">
              <mxPoint x="649" y="2300" />
              <mxPoint x="431" y="2300" />
            </Array>
            <mxPoint x="-437" y="2196" as="targetPoint" />
          </mxGeometry>
        </mxCell>
        <mxCell id="zH7eEooTLA6w7Kah5ZLw-17" value="MoveUpdate" style="swimlane;fontStyle=1;align=center;verticalAlign=top;childLayout=stackLayout;horizontal=1;startSize=26;horizontalStack=0;resizeParent=1;resizeParentMax=0;resizeLast=0;collapsible=1;marginBottom=0;labelBackgroundColor=#FFFFFF;fillColor=none;" parent="1" vertex="1">
          <mxGeometry x="509" y="2421" width="280" height="96" as="geometry" />
        </mxCell>
        <mxCell id="zH7eEooTLA6w7Kah5ZLw-18" value="- turnStates : ArrayList&amp;lt;TurnState&amp;gt;&lt;br&gt;- warehouse : ArrayList&amp;lt;Resource[]&amp;gt;&lt;br&gt;- playerID : String" style="text;html=1;align=left;verticalAlign=middle;resizable=0;points=[];autosize=1;strokeColor=none;labelBackgroundColor=#FFFFFF;fillColor=none;" parent="zH7eEooTLA6w7Kah5ZLw-17" vertex="1">
          <mxGeometry y="26" width="280" height="50" as="geometry" />
        </mxCell>
        <mxCell id="zH7eEooTLA6w7Kah5ZLw-19" value="" style="line;strokeWidth=1;fillColor=none;align=left;verticalAlign=middle;spacingTop=-1;spacingLeft=3;spacingRight=3;rotatable=0;labelPosition=right;points=[];portConstraint=eastwest;labelBackgroundColor=#FFFFFF;" parent="zH7eEooTLA6w7Kah5ZLw-17" vertex="1">
          <mxGeometry y="76" width="280" height="20" as="geometry" />
        </mxCell>
        <mxCell id="zH7eEooTLA6w7Kah5ZLw-20" style="edgeStyle=orthogonalEdgeStyle;rounded=0;orthogonalLoop=1;jettySize=auto;html=1;entryX=0.505;entryY=0.999;entryDx=0;entryDy=0;entryPerimeter=0;exitX=0.5;exitY=0;exitDx=0;exitDy=0;labelBackgroundColor=#FFFFFF;fillColor=none;" parent="1" source="zH7eEooTLA6w7Kah5ZLw-21" target="zH7eEooTLA6w7Kah5ZLw-10" edge="1">
          <mxGeometry relative="1" as="geometry">
            <Array as="points">
              <mxPoint x="949" y="2300" />
              <mxPoint x="431" y="2300" />
            </Array>
            <mxPoint x="-437" y="2196" as="targetPoint" />
          </mxGeometry>
        </mxCell>
        <mxCell id="zH7eEooTLA6w7Kah5ZLw-21" value="PlayLeaderUpdate" style="swimlane;fontStyle=1;align=center;verticalAlign=top;childLayout=stackLayout;horizontal=1;startSize=29;horizontalStack=0;resizeParent=1;resizeParentMax=0;resizeLast=0;collapsible=1;marginBottom=0;labelBackgroundColor=#FFFFFF;fillColor=none;" parent="1" vertex="1">
          <mxGeometry x="863.5" y="2421" width="200" height="73" as="geometry" />
        </mxCell>
        <mxCell id="zH7eEooTLA6w7Kah5ZLw-22" value="- playerID : String&lt;br&gt;- leadersPlayed : ArrayList&amp;lt;String&amp;gt;" style="text;html=1;align=left;verticalAlign=middle;resizable=0;points=[];autosize=1;strokeColor=none;labelBackgroundColor=#FFFFFF;fillColor=none;" parent="zH7eEooTLA6w7Kah5ZLw-21" vertex="1">
          <mxGeometry y="29" width="200" height="30" as="geometry" />
        </mxCell>
        <mxCell id="zH7eEooTLA6w7Kah5ZLw-23" value="" style="line;strokeWidth=1;fillColor=none;align=left;verticalAlign=middle;spacingTop=-1;spacingLeft=3;spacingRight=3;rotatable=0;labelPosition=right;points=[];portConstraint=eastwest;labelBackgroundColor=#FFFFFF;" parent="zH7eEooTLA6w7Kah5ZLw-21" vertex="1">
          <mxGeometry y="59" width="200" height="14" as="geometry" />
        </mxCell>
        <mxCell id="zH7eEooTLA6w7Kah5ZLw-24" style="edgeStyle=orthogonalEdgeStyle;rounded=0;orthogonalLoop=1;jettySize=auto;html=1;entryX=0.505;entryY=1;entryDx=0;entryDy=0;entryPerimeter=0;exitX=0.5;exitY=0;exitDx=0;exitDy=0;labelBackgroundColor=#FFFFFF;fillColor=none;" parent="1" source="zH7eEooTLA6w7Kah5ZLw-25" target="zH7eEooTLA6w7Kah5ZLw-10" edge="1">
          <mxGeometry relative="1" as="geometry">
            <mxPoint x="-436" y="2207" as="targetPoint" />
            <Array as="points">
              <mxPoint x="1219" y="2300" />
              <mxPoint x="431" y="2300" />
            </Array>
          </mxGeometry>
        </mxCell>
        <mxCell id="zH7eEooTLA6w7Kah5ZLw-59" style="edgeStyle=orthogonalEdgeStyle;rounded=0;orthogonalLoop=1;jettySize=auto;html=1;entryX=0.5;entryY=0;entryDx=0;entryDy=0;labelBackgroundColor=#FFFFFF;fillColor=none;" parent="1" source="zH7eEooTLA6w7Kah5ZLw-25" target="zH7eEooTLA6w7Kah5ZLw-55" edge="1">
          <mxGeometry relative="1" as="geometry">
            <Array as="points">
              <mxPoint x="1225" y="2800" />
              <mxPoint x="521" y="2800" />
            </Array>
          </mxGeometry>
        </mxCell>
        <mxCell id="zH7eEooTLA6w7Kah5ZLw-25" value="DiscardLeaderUpdate" style="swimlane;fontStyle=1;align=center;verticalAlign=top;childLayout=stackLayout;horizontal=1;startSize=29;horizontalStack=0;resizeParent=1;resizeParentMax=0;resizeLast=0;collapsible=1;marginBottom=0;labelBackgroundColor=#FFFFFF;fillColor=none;" parent="1" vertex="1">
          <mxGeometry x="1109" y="2423" width="231" height="116" as="geometry" />
        </mxCell>
        <mxCell id="zH7eEooTLA6w7Kah5ZLw-26" value="&lt;span&gt;- turnState : ArrayList&amp;lt;TurnState&amp;gt;&amp;nbsp;&lt;/span&gt;&lt;br&gt;&lt;span&gt;- playerID : String&lt;/span&gt;&lt;br&gt;&lt;span&gt;- faithPoints : int&lt;/span&gt;&lt;br&gt;&lt;span&gt;- leadersID : ArrayList&amp;lt;String&amp;gt;&lt;/span&gt;" style="text;html=1;align=left;verticalAlign=middle;resizable=0;points=[];autosize=1;strokeColor=none;labelBackgroundColor=#FFFFFF;fillColor=none;" parent="zH7eEooTLA6w7Kah5ZLw-25" vertex="1">
          <mxGeometry y="29" width="231" height="60" as="geometry" />
        </mxCell>
        <mxCell id="zH7eEooTLA6w7Kah5ZLw-27" value="" style="line;strokeWidth=1;fillColor=none;align=left;verticalAlign=middle;spacingTop=-1;spacingLeft=3;spacingRight=3;rotatable=0;labelPosition=right;points=[];portConstraint=eastwest;labelBackgroundColor=#FFFFFF;" parent="zH7eEooTLA6w7Kah5ZLw-25" vertex="1">
          <mxGeometry y="89" width="231" height="27" as="geometry" />
        </mxCell>
        <mxCell id="zH7eEooTLA6w7Kah5ZLw-39" style="edgeStyle=orthogonalEdgeStyle;rounded=0;orthogonalLoop=1;jettySize=auto;html=1;entryX=0.506;entryY=1.002;entryDx=0;entryDy=0;entryPerimeter=0;labelBackgroundColor=#FFFFFF;fillColor=none;" parent="1" source="zH7eEooTLA6w7Kah5ZLw-40" target="zH7eEooTLA6w7Kah5ZLw-10" edge="1">
          <mxGeometry relative="1" as="geometry">
            <mxPoint x="-438" y="2220" as="targetPoint" />
            <Array as="points">
              <mxPoint x="326" y="2300" />
              <mxPoint x="431" y="2300" />
            </Array>
          </mxGeometry>
        </mxCell>
        <mxCell id="zH7eEooTLA6w7Kah5ZLw-90" style="edgeStyle=orthogonalEdgeStyle;rounded=0;orthogonalLoop=1;jettySize=auto;html=1;entryX=0.25;entryY=0;entryDx=0;entryDy=0;labelBackgroundColor=#FFFFFF;fillColor=none;" parent="1" source="zH7eEooTLA6w7Kah5ZLw-40" target="zH7eEooTLA6w7Kah5ZLw-55" edge="1">
          <mxGeometry relative="1" as="geometry">
            <Array as="points">
              <mxPoint x="326" y="2800" />
              <mxPoint x="465" y="2800" />
            </Array>
          </mxGeometry>
        </mxCell>
        <mxCell id="zH7eEooTLA6w7Kah5ZLw-40" value="ProduceUpdate" style="swimlane;fontStyle=1;align=center;verticalAlign=top;childLayout=stackLayout;horizontal=1;startSize=26;horizontalStack=0;resizeParent=1;resizeParentMax=0;resizeLast=0;collapsible=1;marginBottom=0;labelBackgroundColor=#FFFFFF;fillColor=none;" parent="1" vertex="1">
          <mxGeometry x="182" y="2421" width="288" height="150" as="geometry" />
        </mxCell>
        <mxCell id="zH7eEooTLA6w7Kah5ZLw-41" value="- turnState : ArrayList&lt;TurnState&gt; &#xa;- playerID : String&#xa;- wareHouse : ArrayList&lt;Resource[]&gt;&#xa;- strongoBox : ArrayList&lt;Resource&gt;&#xa;- tableCardsID : ArrayList&lt;String&gt;&#xa;- faithPoints : int" style="text;strokeColor=none;fillColor=none;align=left;verticalAlign=top;spacingLeft=4;spacingRight=4;overflow=hidden;rotatable=0;points=[[0,0.5],[1,0.5]];portConstraint=eastwest;labelBackgroundColor=#FFFFFF;" parent="zH7eEooTLA6w7Kah5ZLw-40" vertex="1">
          <mxGeometry y="26" width="288" height="104" as="geometry" />
        </mxCell>
        <mxCell id="zH7eEooTLA6w7Kah5ZLw-42" value="" style="line;strokeWidth=1;fillColor=none;align=left;verticalAlign=middle;spacingTop=-1;spacingLeft=3;spacingRight=3;rotatable=0;labelPosition=right;points=[];portConstraint=eastwest;labelBackgroundColor=#FFFFFF;" parent="zH7eEooTLA6w7Kah5ZLw-40" vertex="1">
          <mxGeometry y="130" width="288" height="20" as="geometry" />
        </mxCell>
        <mxCell id="zH7eEooTLA6w7Kah5ZLw-48" value="BuyDevUpdate&#xa;" style="swimlane;fontStyle=1;align=center;verticalAlign=top;childLayout=stackLayout;horizontal=1;startSize=26;horizontalStack=0;resizeParent=1;resizeParentMax=0;resizeLast=0;collapsible=1;marginBottom=0;labelBackgroundColor=#FFFFFF;fillColor=none;" parent="1" vertex="1">
          <mxGeometry x="-171" y="2421" width="270" height="160" as="geometry" />
        </mxCell>
        <mxCell id="zH7eEooTLA6w7Kah5ZLw-49" value="- turnState : ArrayList&amp;lt;TurnState&amp;gt;&amp;nbsp;&lt;br&gt;- playerID : String&lt;br&gt;- wareHouse : ArrayList&amp;lt;Resource[]&amp;gt;&lt;br&gt;- extraDep : ArrayList&amp;lt;Resource[]&amp;gt;&lt;br&gt;- strongoBox : ArrayList&amp;lt;Resource&amp;gt;&lt;br&gt;- tableCardsID : ArrayList&amp;lt;String&amp;gt;&lt;br&gt;- victoryPoints : int&lt;br&gt;- cardsID : ArrayList&amp;lt;String&amp;gt;" style="text;html=1;strokeColor=none;fillColor=none;align=left;verticalAlign=middle;whiteSpace=wrap;rounded=0;labelBackgroundColor=#FFFFFF;" parent="zH7eEooTLA6w7Kah5ZLw-48" vertex="1">
          <mxGeometry y="26" width="270" height="114" as="geometry" />
        </mxCell>
        <mxCell id="zH7eEooTLA6w7Kah5ZLw-50" value="" style="line;strokeWidth=1;fillColor=none;align=left;verticalAlign=middle;spacingTop=-1;spacingLeft=3;spacingRight=3;rotatable=0;labelPosition=right;points=[];portConstraint=eastwest;labelBackgroundColor=#FFFFFF;" parent="zH7eEooTLA6w7Kah5ZLw-48" vertex="1">
          <mxGeometry y="140" width="270" height="20" as="geometry" />
        </mxCell>
        <mxCell id="zH7eEooTLA6w7Kah5ZLw-51" value="MappedResource" style="swimlane;fontStyle=1;align=center;verticalAlign=top;childLayout=stackLayout;horizontal=1;startSize=26;horizontalStack=0;resizeParent=1;resizeParentMax=0;resizeLast=0;collapsible=1;marginBottom=0;labelBackgroundColor=#FFFFFF;fillColor=none;" parent="1" vertex="1">
          <mxGeometry x="-116" y="2611" width="160" height="88" as="geometry" />
        </mxCell>
        <mxCell id="zH7eEooTLA6w7Kah5ZLw-52" value="- resource : Resource&#xa;- place : String" style="text;strokeColor=none;fillColor=none;align=left;verticalAlign=top;spacingLeft=4;spacingRight=4;overflow=hidden;rotatable=0;points=[[0,0.5],[1,0.5]];portConstraint=eastwest;labelBackgroundColor=#FFFFFF;" parent="zH7eEooTLA6w7Kah5ZLw-51" vertex="1">
          <mxGeometry y="26" width="160" height="54" as="geometry" />
        </mxCell>
        <mxCell id="zH7eEooTLA6w7Kah5ZLw-53" value="" style="line;strokeWidth=1;fillColor=none;align=left;verticalAlign=middle;spacingTop=-1;spacingLeft=3;spacingRight=3;rotatable=0;labelPosition=right;points=[];portConstraint=eastwest;labelBackgroundColor=#FFFFFF;" parent="zH7eEooTLA6w7Kah5ZLw-51" vertex="1">
          <mxGeometry y="80" width="160" height="8" as="geometry" />
        </mxCell>
        <mxCell id="zH7eEooTLA6w7Kah5ZLw-54" value="" style="html=1;verticalAlign=bottom;endArrow=block;exitX=0.5;exitY=1;exitDx=0;exitDy=0;entryX=0.5;entryY=0;entryDx=0;entryDy=0;labelBackgroundColor=#FFFFFF;fillColor=none;" parent="1" source="zH7eEooTLA6w7Kah5ZLw-48" target="zH7eEooTLA6w7Kah5ZLw-51" edge="1">
          <mxGeometry width="80" relative="1" as="geometry">
            <mxPoint x="-151" y="2675" as="sourcePoint" />
            <mxPoint x="-71" y="2675" as="targetPoint" />
          </mxGeometry>
        </mxCell>
        <mxCell id="zH7eEooTLA6w7Kah5ZLw-55" value="playerVP" style="swimlane;fontStyle=1;align=center;verticalAlign=top;childLayout=stackLayout;horizontal=1;startSize=26;horizontalStack=0;resizeParent=1;resizeParentMax=0;resizeLast=0;collapsible=1;marginBottom=0;labelBackgroundColor=#FFFFFF;fillColor=none;" parent="1" vertex="1">
          <mxGeometry x="410" y="2960" width="221" height="88" as="geometry" />
        </mxCell>
        <mxCell id="zH7eEooTLA6w7Kah5ZLw-56" value="- playerID : String&#xa;- victoryPoins : int" style="text;strokeColor=none;fillColor=none;align=left;verticalAlign=top;spacingLeft=4;spacingRight=4;overflow=hidden;rotatable=0;points=[[0,0.5],[1,0.5]];portConstraint=eastwest;labelBackgroundColor=#FFFFFF;" parent="zH7eEooTLA6w7Kah5ZLw-55" vertex="1">
          <mxGeometry y="26" width="221" height="54" as="geometry" />
        </mxCell>
        <mxCell id="zH7eEooTLA6w7Kah5ZLw-57" value="" style="line;strokeWidth=1;fillColor=none;align=left;verticalAlign=middle;spacingTop=-1;spacingLeft=3;spacingRight=3;rotatable=0;labelPosition=right;points=[];portConstraint=eastwest;labelBackgroundColor=#FFFFFF;" parent="zH7eEooTLA6w7Kah5ZLw-55" vertex="1">
          <mxGeometry y="80" width="221" height="8" as="geometry" />
        </mxCell>
        <mxCell id="zH7eEooTLA6w7Kah5ZLw-63" style="edgeStyle=orthogonalEdgeStyle;rounded=0;orthogonalLoop=1;jettySize=auto;html=1;labelBackgroundColor=#FFFFFF;fillColor=none;" parent="1" source="zH7eEooTLA6w7Kah5ZLw-60" target="zH7eEooTLA6w7Kah5ZLw-56" edge="1">
          <mxGeometry relative="1" as="geometry" />
        </mxCell>
        <mxCell id="zH7eEooTLA6w7Kah5ZLw-64" style="edgeStyle=orthogonalEdgeStyle;rounded=0;orthogonalLoop=1;jettySize=auto;html=1;entryX=0.506;entryY=1;entryDx=0;entryDy=0;entryPerimeter=0;labelBackgroundColor=#FFFFFF;fillColor=none;" parent="1" source="zH7eEooTLA6w7Kah5ZLw-60" target="zH7eEooTLA6w7Kah5ZLw-10" edge="1">
          <mxGeometry relative="1" as="geometry">
            <mxPoint x="430" y="2140" as="targetPoint" />
            <Array as="points">
              <mxPoint x="1536" y="2300" />
              <mxPoint x="431" y="2300" />
              <mxPoint x="431" y="2160" />
              <mxPoint x="431" y="2160" />
            </Array>
          </mxGeometry>
        </mxCell>
        <mxCell id="zH7eEooTLA6w7Kah5ZLw-60" value="EndgameUpdate" style="swimlane;fontStyle=1;align=center;verticalAlign=top;childLayout=stackLayout;horizontal=1;startSize=29;horizontalStack=0;resizeParent=1;resizeParentMax=0;resizeLast=0;collapsible=1;marginBottom=0;labelBackgroundColor=#FFFFFF;fillColor=none;" parent="1" vertex="1">
          <mxGeometry x="1420" y="2421" width="231" height="86" as="geometry" />
        </mxCell>
        <mxCell id="zH7eEooTLA6w7Kah5ZLw-61" value="&lt;br&gt;&lt;span&gt;- winner : String&lt;/span&gt;" style="text;html=1;align=left;verticalAlign=middle;resizable=0;points=[];autosize=1;strokeColor=none;labelBackgroundColor=#FFFFFF;fillColor=none;" parent="zH7eEooTLA6w7Kah5ZLw-60" vertex="1">
          <mxGeometry y="29" width="231" height="30" as="geometry" />
        </mxCell>
        <mxCell id="zH7eEooTLA6w7Kah5ZLw-62" value="" style="line;strokeWidth=1;fillColor=none;align=left;verticalAlign=middle;spacingTop=-1;spacingLeft=3;spacingRight=3;rotatable=0;labelPosition=right;points=[];portConstraint=eastwest;labelBackgroundColor=#FFFFFF;" parent="zH7eEooTLA6w7Kah5ZLw-60" vertex="1">
          <mxGeometry y="59" width="231" height="27" as="geometry" />
        </mxCell>
        <mxCell id="zH7eEooTLA6w7Kah5ZLw-65" value="EndTurnUpdate" style="swimlane;fontStyle=1;align=center;verticalAlign=top;childLayout=stackLayout;horizontal=1;startSize=29;horizontalStack=0;resizeParent=1;resizeParentMax=0;resizeLast=0;collapsible=1;marginBottom=0;labelBackgroundColor=#FFFFFF;fillColor=none;" parent="1" vertex="1">
          <mxGeometry x="1710" y="2421" width="231" height="86" as="geometry" />
        </mxCell>
        <mxCell id="zH7eEooTLA6w7Kah5ZLw-66" value="&lt;span&gt;- turnState : ArrayList&amp;lt;TurnState&amp;gt;&amp;nbsp;&lt;/span&gt;&lt;br&gt;&lt;span&gt;- nextPlayer : String&lt;/span&gt;&lt;br&gt;" style="text;html=1;align=left;verticalAlign=middle;resizable=0;points=[];autosize=1;strokeColor=none;labelBackgroundColor=#FFFFFF;fillColor=none;" parent="zH7eEooTLA6w7Kah5ZLw-65" vertex="1">
          <mxGeometry y="29" width="231" height="30" as="geometry" />
        </mxCell>
        <mxCell id="zH7eEooTLA6w7Kah5ZLw-67" value="" style="line;strokeWidth=1;fillColor=none;align=left;verticalAlign=middle;spacingTop=-1;spacingLeft=3;spacingRight=3;rotatable=0;labelPosition=right;points=[];portConstraint=eastwest;labelBackgroundColor=#FFFFFF;" parent="zH7eEooTLA6w7Kah5ZLw-65" vertex="1">
          <mxGeometry y="59" width="231" height="27" as="geometry" />
        </mxCell>
        <mxCell id="zH7eEooTLA6w7Kah5ZLw-68" style="edgeStyle=orthogonalEdgeStyle;rounded=0;orthogonalLoop=1;jettySize=auto;html=1;entryX=0.503;entryY=0.988;entryDx=0;entryDy=0;entryPerimeter=0;exitX=0.5;exitY=0;exitDx=0;exitDy=0;labelBackgroundColor=#FFFFFF;fillColor=none;" parent="1" source="zH7eEooTLA6w7Kah5ZLw-65" target="zH7eEooTLA6w7Kah5ZLw-10" edge="1">
          <mxGeometry relative="1" as="geometry">
            <mxPoint x="1870" y="2320" as="sourcePoint" />
            <Array as="points">
              <mxPoint x="1825" y="2300" />
              <mxPoint x="430" y="2300" />
            </Array>
          </mxGeometry>
        </mxCell>
        <mxCell id="zH7eEooTLA6w7Kah5ZLw-72" style="edgeStyle=orthogonalEdgeStyle;rounded=0;orthogonalLoop=1;jettySize=auto;html=1;entryX=0.505;entryY=0.995;entryDx=0;entryDy=0;entryPerimeter=0;labelBackgroundColor=#FFFFFF;fillColor=none;" parent="1" source="zH7eEooTLA6w7Kah5ZLw-69" target="zH7eEooTLA6w7Kah5ZLw-10" edge="1">
          <mxGeometry relative="1" as="geometry">
            <Array as="points">
              <mxPoint x="2136" y="2300" />
              <mxPoint x="431" y="2300" />
              <mxPoint x="431" y="2130" />
              <mxPoint x="431" y="2130" />
            </Array>
          </mxGeometry>
        </mxCell>
        <mxCell id="zH7eEooTLA6w7Kah5ZLw-69" value="ErrorUpdate" style="swimlane;fontStyle=1;align=center;verticalAlign=top;childLayout=stackLayout;horizontal=1;startSize=29;horizontalStack=0;resizeParent=1;resizeParentMax=0;resizeLast=0;collapsible=1;marginBottom=0;labelBackgroundColor=#FFFFFF;fillColor=none;" parent="1" vertex="1">
          <mxGeometry x="2020" y="2421" width="231" height="86" as="geometry" />
        </mxCell>
        <mxCell id="zH7eEooTLA6w7Kah5ZLw-70" value="&lt;span&gt;- error : String&lt;/span&gt;&lt;br&gt;- playerID : String" style="text;html=1;align=left;verticalAlign=middle;resizable=0;points=[];autosize=1;strokeColor=none;labelBackgroundColor=#FFFFFF;fillColor=none;" parent="zH7eEooTLA6w7Kah5ZLw-69" vertex="1">
          <mxGeometry y="29" width="231" height="30" as="geometry" />
        </mxCell>
        <mxCell id="zH7eEooTLA6w7Kah5ZLw-71" value="" style="line;strokeWidth=1;fillColor=none;align=left;verticalAlign=middle;spacingTop=-1;spacingLeft=3;spacingRight=3;rotatable=0;labelPosition=right;points=[];portConstraint=eastwest;labelBackgroundColor=#FFFFFF;" parent="zH7eEooTLA6w7Kah5ZLw-69" vertex="1">
          <mxGeometry y="59" width="231" height="27" as="geometry" />
        </mxCell>
        <mxCell id="zH7eEooTLA6w7Kah5ZLw-74" value="playerFP" style="swimlane;fontStyle=1;align=center;verticalAlign=top;childLayout=stackLayout;horizontal=1;startSize=26;horizontalStack=0;resizeParent=1;resizeParentMax=0;resizeLast=0;collapsible=1;marginBottom=0;labelBackgroundColor=#FFFFFF;fillColor=none;" parent="1" vertex="1">
          <mxGeometry x="410" y="3080" width="221" height="88" as="geometry" />
        </mxCell>
        <mxCell id="zH7eEooTLA6w7Kah5ZLw-75" value="- playerID : String&#xa;- faithPoints : int" style="text;strokeColor=none;fillColor=none;align=left;verticalAlign=top;spacingLeft=4;spacingRight=4;overflow=hidden;rotatable=0;points=[[0,0.5],[1,0.5]];portConstraint=eastwest;labelBackgroundColor=#FFFFFF;" parent="zH7eEooTLA6w7Kah5ZLw-74" vertex="1">
          <mxGeometry y="26" width="221" height="54" as="geometry" />
        </mxCell>
        <mxCell id="zH7eEooTLA6w7Kah5ZLw-76" value="" style="line;strokeWidth=1;fillColor=none;align=left;verticalAlign=middle;spacingTop=-1;spacingLeft=3;spacingRight=3;rotatable=0;labelPosition=right;points=[];portConstraint=eastwest;labelBackgroundColor=#FFFFFF;" parent="zH7eEooTLA6w7Kah5ZLw-74" vertex="1">
          <mxGeometry y="80" width="221" height="8" as="geometry" />
        </mxCell>
        <mxCell id="zH7eEooTLA6w7Kah5ZLw-87" style="edgeStyle=orthogonalEdgeStyle;rounded=0;orthogonalLoop=1;jettySize=auto;html=1;entryX=1;entryY=0.5;entryDx=0;entryDy=0;labelBackgroundColor=#FFFFFF;fillColor=none;" parent="1" source="zH7eEooTLA6w7Kah5ZLw-78" target="zH7eEooTLA6w7Kah5ZLw-82" edge="1">
          <mxGeometry relative="1" as="geometry" />
        </mxCell>
        <mxCell id="zH7eEooTLA6w7Kah5ZLw-88" style="edgeStyle=orthogonalEdgeStyle;rounded=0;orthogonalLoop=1;jettySize=auto;html=1;exitX=0.75;exitY=1;exitDx=0;exitDy=0;entryX=1;entryY=0.5;entryDx=0;entryDy=0;labelBackgroundColor=#FFFFFF;fillColor=none;" parent="1" source="zH7eEooTLA6w7Kah5ZLw-78" target="zH7eEooTLA6w7Kah5ZLw-85" edge="1">
          <mxGeometry relative="1" as="geometry" />
        </mxCell>
        <mxCell id="zH7eEooTLA6w7Kah5ZLw-78" value="NewGameUpdate&#xa;" style="swimlane;fontStyle=1;align=center;verticalAlign=top;childLayout=stackLayout;horizontal=1;startSize=26;horizontalStack=0;resizeParent=1;resizeParentMax=0;resizeLast=0;collapsible=1;marginBottom=0;labelBackgroundColor=#FFFFFF;fillColor=none;" parent="1" vertex="1">
          <mxGeometry x="2319" y="2424" width="231" height="90" as="geometry" />
        </mxCell>
        <mxCell id="zH7eEooTLA6w7Kah5ZLw-79" value="- frontTableCardsID : ArrayList&amp;lt;String&amp;gt;&lt;br&gt;- market : Resource[][]" style="text;html=1;strokeColor=none;fillColor=none;align=left;verticalAlign=middle;whiteSpace=wrap;rounded=0;labelBackgroundColor=#FFFFFF;" parent="zH7eEooTLA6w7Kah5ZLw-78" vertex="1">
          <mxGeometry y="26" width="231" height="44" as="geometry" />
        </mxCell>
        <mxCell id="zH7eEooTLA6w7Kah5ZLw-80" value="" style="line;strokeWidth=1;fillColor=none;align=left;verticalAlign=middle;spacingTop=-1;spacingLeft=3;spacingRight=3;rotatable=0;labelPosition=right;points=[];portConstraint=eastwest;labelBackgroundColor=#FFFFFF;" parent="zH7eEooTLA6w7Kah5ZLw-78" vertex="1">
          <mxGeometry y="70" width="231" height="20" as="geometry" />
        </mxCell>
        <mxCell id="zH7eEooTLA6w7Kah5ZLw-81" value="playerLC" style="swimlane;fontStyle=1;align=center;verticalAlign=top;childLayout=stackLayout;horizontal=1;startSize=26;horizontalStack=0;resizeParent=1;resizeParentMax=0;resizeLast=0;collapsible=1;marginBottom=0;labelBackgroundColor=#FFFFFF;fillColor=none;" parent="1" vertex="1">
          <mxGeometry x="410" y="3212" width="221" height="88" as="geometry" />
        </mxCell>
        <mxCell id="zH7eEooTLA6w7Kah5ZLw-82" value="- playerID : String&#xa;- leadersToChoose : ArrayList&lt;String&gt;" style="text;strokeColor=none;fillColor=none;align=left;verticalAlign=top;spacingLeft=4;spacingRight=4;overflow=hidden;rotatable=0;points=[[0,0.5],[1,0.5]];portConstraint=eastwest;labelBackgroundColor=#FFFFFF;" parent="zH7eEooTLA6w7Kah5ZLw-81" vertex="1">
          <mxGeometry y="26" width="221" height="54" as="geometry" />
        </mxCell>
        <mxCell id="zH7eEooTLA6w7Kah5ZLw-83" value="" style="line;strokeWidth=1;fillColor=none;align=left;verticalAlign=middle;spacingTop=-1;spacingLeft=3;spacingRight=3;rotatable=0;labelPosition=right;points=[];portConstraint=eastwest;labelBackgroundColor=#FFFFFF;" parent="zH7eEooTLA6w7Kah5ZLw-81" vertex="1">
          <mxGeometry y="80" width="221" height="8" as="geometry" />
        </mxCell>
        <mxCell id="zH7eEooTLA6w7Kah5ZLw-84" value="playerST" style="swimlane;fontStyle=1;align=center;verticalAlign=top;childLayout=stackLayout;horizontal=1;startSize=26;horizontalStack=0;resizeParent=1;resizeParentMax=0;resizeLast=0;collapsible=1;marginBottom=0;labelBackgroundColor=#FFFFFF;fillColor=none;" parent="1" vertex="1">
          <mxGeometry x="410" y="3360" width="221" height="88" as="geometry" />
        </mxCell>
        <mxCell id="zH7eEooTLA6w7Kah5ZLw-85" value="- playerID : String&#xa;- faithPoints : int&#xa;- choices : int" style="text;strokeColor=none;fillColor=none;align=left;verticalAlign=top;spacingLeft=4;spacingRight=4;overflow=hidden;rotatable=0;points=[[0,0.5],[1,0.5]];portConstraint=eastwest;labelBackgroundColor=#FFFFFF;" parent="zH7eEooTLA6w7Kah5ZLw-84" vertex="1">
          <mxGeometry y="26" width="221" height="54" as="geometry" />
        </mxCell>
        <mxCell id="zH7eEooTLA6w7Kah5ZLw-86" value="" style="line;strokeWidth=1;fillColor=none;align=left;verticalAlign=middle;spacingTop=-1;spacingLeft=3;spacingRight=3;rotatable=0;labelPosition=right;points=[];portConstraint=eastwest;labelBackgroundColor=#FFFFFF;" parent="zH7eEooTLA6w7Kah5ZLw-84" vertex="1">
          <mxGeometry y="80" width="221" height="8" as="geometry" />
        </mxCell>
        <mxCell id="zH7eEooTLA6w7Kah5ZLw-89" style="edgeStyle=orthogonalEdgeStyle;rounded=0;orthogonalLoop=1;jettySize=auto;html=1;entryX=0.504;entryY=0.977;entryDx=0;entryDy=0;entryPerimeter=0;exitX=0.5;exitY=0;exitDx=0;exitDy=0;labelBackgroundColor=#FFFFFF;fillColor=none;" parent="1" source="zH7eEooTLA6w7Kah5ZLw-78" target="zH7eEooTLA6w7Kah5ZLw-10" edge="1">
          <mxGeometry relative="1" as="geometry">
            <mxPoint x="2460" y="2380" as="sourcePoint" />
            <mxPoint x="432" y="2110" as="targetPoint" />
            <Array as="points">
              <mxPoint x="2435" y="2300" />
              <mxPoint x="430" y="2300" />
            </Array>
          </mxGeometry>
        </mxCell>
        <mxCell id="zH7eEooTLA6w7Kah5ZLw-94" style="edgeStyle=orthogonalEdgeStyle;rounded=0;orthogonalLoop=1;jettySize=auto;html=1;entryX=0.505;entryY=1.003;entryDx=0;entryDy=0;entryPerimeter=0;labelBackgroundColor=#FFFFFF;fillColor=none;" parent="1" source="zH7eEooTLA6w7Kah5ZLw-91" target="zH7eEooTLA6w7Kah5ZLw-10" edge="1">
          <mxGeometry relative="1" as="geometry">
            <Array as="points">
              <mxPoint x="-810" y="2300" />
              <mxPoint x="431" y="2300" />
              <mxPoint x="431" y="2140" />
              <mxPoint x="431" y="2140" />
            </Array>
          </mxGeometry>
        </mxCell>
        <mxCell id="zH7eEooTLA6w7Kah5ZLw-91" value="StartGameUpdate" style="swimlane;fontStyle=1;align=center;verticalAlign=top;childLayout=stackLayout;horizontal=1;startSize=26;horizontalStack=0;resizeParent=1;resizeParentMax=0;resizeLast=0;collapsible=1;marginBottom=0;labelBackgroundColor=#FFFFFF;fillColor=none;" parent="1" vertex="1">
          <mxGeometry x="-950" y="2400" width="280" height="66" as="geometry" />
        </mxCell>
        <mxCell id="zH7eEooTLA6w7Kah5ZLw-92" value="- playerID : String" style="text;html=1;align=left;verticalAlign=middle;resizable=0;points=[];autosize=1;strokeColor=none;labelBackgroundColor=#FFFFFF;fillColor=none;" parent="zH7eEooTLA6w7Kah5ZLw-91" vertex="1">
          <mxGeometry y="26" width="280" height="20" as="geometry" />
        </mxCell>
        <mxCell id="zH7eEooTLA6w7Kah5ZLw-93" value="" style="line;strokeWidth=1;fillColor=none;align=left;verticalAlign=middle;spacingTop=-1;spacingLeft=3;spacingRight=3;rotatable=0;labelPosition=right;points=[];portConstraint=eastwest;labelBackgroundColor=#FFFFFF;" parent="zH7eEooTLA6w7Kah5ZLw-91" vertex="1">
          <mxGeometry y="46" width="280" height="20" as="geometry" />
        </mxCell>
        <mxCell id="tSDiauI4BHr5IlE3H6ec-1" value="&lt;b&gt;BasicPlayer&lt;/b&gt;" style="swimlane;html=1;fontStyle=0;childLayout=stackLayout;horizontal=1;startSize=32;fillColor=none;horizontalStack=0;resizeParent=1;resizeLast=0;collapsible=1;marginBottom=0;swimlaneFillColor=#ffffff;rounded=0;shadow=0;comic=0;labelBackgroundColor=#FFFFFF;strokeWidth=1;fontFamily=Verdana;fontSize=10;align=center;" parent="1" vertex="1">
          <mxGeometry x="-200" y="310" width="500" height="338" as="geometry" />
        </mxCell>
        <mxCell id="17acba5748e5396b-21" value="- nickName : String&lt;br&gt;- victoryPoints : int&lt;br&gt;- leadersID : ArrayList &amp;lt;String&amp;gt;" style="text;html=1;strokeColor=none;fillColor=none;align=left;verticalAlign=top;spacingLeft=4;spacingRight=4;whiteSpace=wrap;overflow=hidden;rotatable=0;points=[[0,0.5],[1,0.5]];portConstraint=eastwest;labelBackgroundColor=#FFFFFF;" parent="tSDiauI4BHr5IlE3H6ec-1" vertex="1">
          <mxGeometry y="32" width="500" height="48" as="geometry" />
        </mxCell>
        <mxCell id="tSDiauI4BHr5IlE3H6ec-7" value="" style="line;strokeWidth=1;fillColor=none;align=left;verticalAlign=middle;spacingTop=-1;spacingLeft=3;spacingRight=3;rotatable=0;labelPosition=right;points=[];portConstraint=eastwest;labelBackgroundColor=#FFFFFF;" parent="tSDiauI4BHr5IlE3H6ec-1" vertex="1">
          <mxGeometry y="80" width="500" height="40" as="geometry" />
        </mxCell>
        <mxCell id="J_sTyP8ABnYzC_URSm-T-2" value="+ addLeaderCard(LeaderCard card) : void&lt;br&gt;+ addVictroyPoints(int vp) : void&lt;br&gt;+ produce(String cardID)&lt;br&gt;+ checkSpace(Resource res, int level) : boolean&lt;br&gt;+ addResource(int level, Resource res) : void&lt;br&gt;+ removeResource(Resource res, String place) : void&lt;br&gt;+ checkMarketRes(Arraylist&amp;lt;Resource&amp;gt; requestedRes, ArraList&amp;lt;MarketRes&amp;gt;) : boolean&lt;br&gt;+ checkLevel(int level) : boolean&lt;br&gt;+ getAllResource() : ArrayList&amp;lt;Resource&amp;gt;&lt;br&gt;+ switchLeveles(Resource res, int orLevel, int finLevel) : void&lt;br&gt;+ canBuy(DevCard devCard, ArrayList&amp;lt;Resource&amp;gt; allPlayeres) : boolean&lt;br&gt;+ getLeaderFromID(String cardID) : LeaderCard&lt;br&gt;+ getProductionID() : ArrayList&amp;lt;String&amp;gt;&lt;br&gt;" style="text;html=1;strokeColor=none;fillColor=none;align=left;verticalAlign=middle;whiteSpace=wrap;rounded=0;labelBackgroundColor=#FFFFFF;" parent="tSDiauI4BHr5IlE3H6ec-1" vertex="1">
          <mxGeometry y="120" width="500" height="190" as="geometry" />
        </mxCell>
        <mxCell id="SFqLoZ8OUoLM1zxtufWX-3" value="0...*" style="text;html=1;strokeColor=none;fillColor=none;align=center;verticalAlign=middle;whiteSpace=wrap;rounded=0;labelBackgroundColor=#FFFFFF;fontColor=#000000;" vertex="1" parent="1">
          <mxGeometry x="44" y="1055" width="40" height="20" as="geometry" />
        </mxCell>
      </root>
    </mxGraphModel>
  </diagram>
</mxfile>
